<?xml version="1.0" encoding="UTF-8" standalone="yes"?>
<svg xmlns="http://www.w3.org/2000/svg" xmlns:xlink="http://www.w3.org/1999/xlink" width="1024.000px" height="768.000px" version="1.1" viewBox="-256.000 576.000 512.000 384.000">
  <!--
	Exported with Concepts: Smarter Sketching
	Version: 1057 on iOS 14.8
	https://concepts.app/
	-->
  <title>Untitled 69</title>
  <desc>Drawing exported from Concepts: Smarter Sketching</desc>
  <defs></defs>
  <g id="Fill" opacity="1.000">
    <path id="STROKE_bac6cd02-5863-44c8-ba80-ae0f01ea1763" opacity="1.000" fill="#8191b4" stroke="#8191b4" stroke-width="0.500" stroke-opacity="1.000" stroke-linecap="round" stroke-linejoin="round" d="M -312.738 846.690 Q -312.766 846.602 -313.294 846.407 Q -313.823 846.213 -313.852 846.230 Q -313.880 846.246 -313.764 846.345 Q -313.648 846.444 -314.223 845.836 Q -314.289 845.680 -313.190 845.681 Q -312.092 845.682 -305.995 845.933 Q -299.899 846.184 -295.122 846.440 Q -290.345 846.696 -286.950 847.000 Q -283.554 847.304 -281.930 847.462 Q -280.305 847.620 -276.034 849.716 Q -271.762 851.812 -268.311 853.981 Q -264.861 856.150 -261.312 857.540 Q -257.764 858.930 -254.088 860.493 Q -250.413 862.055 -247.002 863.901 Q -243.591 865.746 -235.394 867.135 Q -227.197 868.524 -222.690 869.093 Q -218.183 869.662 -216.166 870.225 Q -214.150 870.787 -211.328 871.821 Q -208.507 872.854 -206.646 873.970 Q -204.785 875.086 -203.143 877.439 Q -201.501 879.791 -200.914 882.708 Q -200.327 885.624 -202.146 892.625 Q -203.965 899.625 -204.970 903.580 Q -205.975 907.534 -206.645 910.776 Q -207.315 914.017 -206.800 916.704 Q -206.285 919.391 -205.032 920.702 Q -203.780 922.013 -202.876 922.554 Q -201.972 923.095 -200.660 923.961 Q -199.348 924.826 -195.063 926.130 Q -190.778 927.434 -188.290 928.178 Q -185.802 928.923 -181.863 929.577 Q -177.924 930.231 -170.700 929.394 Q -163.475 928.558 -156.661 926.872 Q -149.847 925.187 -142.272 922.607 Q -134.697 920.026 -130.592 918.494 Q -126.487 916.961 -122.377 915.497 Q -118.267 914.034 -113.065 913.493 Q -107.863 912.952 -104.522 912.849 Q -101.181 912.746 -98.077 912.984 Q -94.972 913.222 -92.486 913.457 Q -90.000 913.691 -84.952 915.405 Q -79.903 917.118 -77.623 918.099 Q -75.344 919.080 -74.158 919.700 Q -72.972 920.321 -71.503 921.466 Q -70.034 922.611 -69.494 924.048 Q -68.954 925.485 -68.280 926.634 Q -67.606 927.783 -67.854 930.771 Q -68.102 933.759 -69.452 937.168 Q -70.803 940.577 -71.905 943.561 Q -73.007 946.544 -78.795 955.483 Q -84.583 964.421 -88.127 968.892 Q -91.670 973.364 -94.084 978.305 Q -96.497 983.245 -100.525 988.394 Q -104.554 993.542 -107.265 997.380 Q -109.976 1001.219 -110.891 1003.369 Q -111.805 1005.519 -112.135 1006.672 Q -112.464 1007.825 -112.836 1008.480 Q -113.208 1009.136 -113.414 1012.183 Q -113.621 1015.230 -113.298 1018.409 Q -112.974 1021.588 -113.760 1024.419 Q -114.546 1027.251 -115.124 1028.925 Q -115.701 1030.600 -115.883 1031.261 Q -116.066 1031.923 -116.221 1032.384 Q -116.376 1032.845 -116.556 1033.292 Q -116.736 1033.739 -116.751 1033.781 Q -116.766 1033.823 -116.872 1033.932 Q -116.978 1034.041 -118.038 1036.689 Q -119.099 1039.336 -121.231 1042.772 Q -123.362 1046.208 -124.779 1048.124 Q -126.196 1050.041 -126.679 1050.904 Q -127.163 1051.767 -127.439 1052.212 Q -127.714 1052.658 -127.982 1053.130 Q -128.250 1053.601 -128.503 1054.021 Q -128.755 1054.441 -128.918 1054.738 Q -129.082 1055.034 -129.205 1055.268 Q -129.328 1055.501 -129.866 1056.441 Q -130.404 1057.380 -130.674 1057.949 Q -130.944 1058.517 -132.093 1059.898 Q -133.241 1061.279 -134.749 1062.917 Q -136.257 1064.556 -137.253 1065.786 Q -138.249 1067.017 -138.911 1067.745 Q -139.572 1068.472 -139.919 1068.842 Q -140.266 1069.212 -140.464 1069.416 Q -140.661 1069.620 -141.392 1070.376 Q -142.123 1071.132 -142.097 1071.031 Q -142.071 1070.929 -145.594 1073.893 Q -149.117 1076.857 -151.957 1079.449 Q -154.797 1082.041 -156.440 1083.404 Q -158.082 1084.766 -158.905 1085.588 Q -159.729 1086.409 -160.384 1087.376 Q -161.039 1088.343 -164.921 1091.313 Q -168.804 1094.284 -171.581 1096.428 Q -174.359 1098.573 -175.644 1099.625 Q -176.929 1100.676 -177.610 1101.191 Q -178.291 1101.705 -178.986 1102.256 Q -179.682 1102.807 -180.004 1103.030 Q -180.326 1103.253 -180.436 1103.381 Q -180.546 1103.508 -180.659 1103.556 Q -180.771 1103.604 -183.194 1105.198 Q -185.618 1106.791 -188.078 1109.288 Q -190.538 1111.785 -192.708 1114.043 Q -194.879 1116.301 -195.899 1117.441 Q -196.919 1118.580 -197.507 1119.201 Q -198.096 1119.821 -198.183 1119.963 Q -198.271 1120.105 -198.792 1120.662 Q -199.313 1121.219 -199.378 1121.272 Q -199.444 1121.325 -199.858 1121.526 Q -200.271 1121.727 -200.558 1121.923 "></path>
    <path id="STROKE_cd3588be-6f0a-4c9e-8375-b0b11e7c7dfe" opacity="1.000" fill="#8191b4" stroke="#8191b4" stroke-width="0.500" stroke-opacity="1.000" stroke-linecap="round" stroke-linejoin="round" d="M 65.762 536.567 Q 64.613 537.128 64.833 537.088 Q 65.054 537.048 65.039 537.053 Q 65.024 537.057 64.904 537.165 Q 64.785 537.272 65.369 539.089 Q 65.954 540.906 68.911 545.056 Q 71.867 549.207 73.825 551.433 Q 75.783 553.659 77.561 557.395 Q 79.340 561.131 80.746 564.510 Q 82.152 567.890 83.845 571.133 Q 85.539 574.376 86.702 577.095 Q 87.865 579.813 88.232 583.775 Q 88.598 587.737 88.080 591.216 Q 87.561 594.696 86.583 597.665 Q 85.605 600.634 84.465 602.409 Q 83.325 604.184 82.395 605.933 Q 81.465 607.683 81.110 610.890 Q 80.756 614.097 80.904 616.605 Q 81.051 619.113 81.587 621.565 Q 82.123 624.017 82.770 625.823 Q 83.418 627.629 85.169 629.860 Q 86.919 632.091 89.838 634.006 Q 92.757 635.922 97.329 637.138 Q 101.901 638.354 106.198 638.562 Q 110.496 638.771 113.546 638.963 Q 116.597 639.155 123.582 637.102 Q 130.567 635.050 134.299 633.959 Q 138.030 632.868 140.029 632.030 Q 142.028 631.192 143.314 630.320 Q 144.601 629.449 145.451 628.810 Q 146.301 628.172 149.064 625.592 Q 151.828 623.011 155.030 620.534 Q 158.232 618.057 159.915 616.826 Q 161.598 615.595 163.254 614.215 Q 164.910 612.835 166.489 611.392 Q 168.068 609.950 169.600 608.399 Q 171.133 606.849 173.247 605.289 Q 175.362 603.729 177.128 602.602 Q 178.895 601.476 182.629 599.061 Q 186.363 596.646 190.082 595.127 Q 193.801 593.608 195.711 592.973 Q 197.622 592.338 199.967 591.992 Q 202.313 591.646 203.716 591.754 Q 205.119 591.861 205.780 591.999 Q 206.441 592.136 207.629 592.930 Q 208.818 593.723 209.716 595.164 Q 210.614 596.605 211.122 599.419 Q 211.630 602.233 210.311 607.278 Q 208.992 612.322 205.954 618.800 Q 202.916 625.279 199.190 630.738 Q 195.465 636.197 193.706 638.459 Q 191.948 640.721 190.802 642.057 Q 189.657 643.392 186.842 647.397 Q 184.027 651.402 182.481 653.379 Q 180.935 655.357 179.811 658.000 Q 178.687 660.643 178.432 662.526 Q 178.177 664.408 178.025 666.790 Q 177.874 669.172 178.406 672.804 Q 178.939 676.436 180.462 679.862 Q 181.986 683.289 183.016 685.262 Q 184.047 687.236 186.189 688.783 Q 188.331 690.330 190.778 691.344 Q 193.225 692.357 196.998 693.358 Q 200.771 694.359 203.149 694.628 Q 205.527 694.897 208.521 695.044 Q 211.516 695.191 214.813 694.354 Q 218.111 693.518 222.186 692.056 Q 226.262 690.595 230.795 689.837 Q 235.328 689.079 237.712 688.761 Q 240.097 688.443 241.221 688.353 Q 242.346 688.263 243.377 688.204 Q 244.409 688.146 246.224 688.154 Q 248.039 688.162 251.384 688.165 Q 254.728 688.168 257.418 688.124 Q 260.109 688.080 262.080 688.077 Q 264.050 688.074 265.707 688.249 Q 267.363 688.424 269.236 688.677 Q 271.108 688.931 273.707 687.844 Q 276.305 686.756 278.067 685.708 Q 279.828 684.661 283.943 681.860 Q 288.058 679.059 291.361 676.563 Q 294.664 674.066 297.172 671.811 Q 299.681 669.556 301.394 666.782 Q 303.108 664.007 303.774 662.672 Q 304.440 661.338 305.068 660.083 Q 305.696 658.828 305.930 658.370 Q 306.164 657.913 306.472 657.026 Q 306.780 656.140 307.058 655.185 Q 307.335 654.231 307.567 650.627 Q 307.799 647.022 307.417 638.433 Q 307.035 629.843 306.964 624.325 Q 306.892 618.807 306.710 613.166 Q 306.529 607.525 307.343 601.363 Q 308.157 595.202 308.457 591.944 Q 308.758 588.686 310.040 584.895 Q 311.322 581.104 312.579 578.400 Q 313.837 575.697 315.225 571.969 Q 316.613 568.241 317.867 565.419 Q 319.122 562.597 319.462 560.080 Q 319.802 557.562 319.902 555.378 Q 320.002 553.194 320.291 551.921 Q 320.580 550.647 320.675 550.193 Q 320.769 549.740 320.845 549.504 Q 320.920 549.267 320.951 549.139 Q 320.982 549.010 321.055 548.771 Q 321.129 548.533 321.170 548.395 Q 321.212 548.258 321.292 548.039 Q 321.373 547.819 321.457 547.579 Q 321.541 547.339 321.584 547.274 Q 321.626 547.209 321.499 547.405 Q 321.371 547.602 322.168 545.698 Q 322.966 543.794 323.459 542.684 Q 323.953 541.574 324.108 541.232 Q 324.263 540.890 324.377 540.588 Q 324.491 540.286 324.540 540.106 Q 324.588 539.925 324.574 539.971 Q 324.560 540.016 324.573 540.021 Q 324.972 539.358 324.967 539.372 Q 324.963 539.385 324.951 539.407 Q 325.370 538.708 325.753 538.240 Q 326.136 537.772 326.350 537.531 "></path>
  </g>
  <g id="Custom" opacity="1.000">
    <path id="STROKE_85e729ae-dbc3-4885-87b5-9fb93fa6b2a5" opacity="1.000" fill="none" stroke="#dbf8e3" stroke-width="28.864" stroke-opacity="1.000" stroke-linecap="round" stroke-linejoin="round" d="M 181.942 705.975 Q 181.703 706.089 180.975 705.994 Q 180.247 705.899 180.177 705.669 Q 180.107 705.440 180.141 705.471 Q 180.175 705.503 180.095 705.293 Q 180.015 705.084 179.117 703.930 Q 178.220 702.776 177.741 701.722 Q 177.263 700.668 177.304 700.179 Q 177.344 699.689 177.335 699.442 Q 177.325 699.195 177.353 698.969 Q 177.381 698.744 177.421 698.029 Q 177.461 697.314 177.145 694.394 Q 176.830 691.474 177.936 687.664 Q 179.041 683.854 179.776 682.015 Q 180.512 680.176 181.328 678.714 Q 182.145 677.253 182.620 676.672 Q 183.096 676.091 183.441 675.690 Q 183.787 675.290 183.810 675.255 Q 183.832 675.220 184.191 674.817 Q 184.550 674.414 184.552 674.412 Q 184.554 674.410 184.530 674.438 Q 184.507 674.466 184.647 674.301 Q 184.787 674.136 185.953 672.834 Q 185.953 674.050 185.953 673.782 Q 185.953 674.795 185.953 674.645 Q 186.172 675.098 185.241 678.015 Q 184.310 680.932 184.015 683.399 Q 183.720 685.866 183.767 687.778 Q 183.814 689.689 184.085 690.579 Q 184.356 691.469 184.724 692.494 Q 185.092 693.519 185.592 694.532 Q 186.091 695.545 186.593 696.014 Q 187.094 696.484 187.314 696.588 Q 187.534 696.693 187.851 696.634 Q 188.168 696.576 188.275 696.514 Q 188.382 696.453 188.510 696.425 Q 188.638 696.396 189.324 695.404 Q 190.010 694.412 190.247 693.160 Q 190.484 691.907 192.319 690.188 Q 194.154 688.469 197.105 685.040 Q 197.148 685.959 197.131 685.902 Q 197.235 686.317 197.157 688.927 Q 197.079 691.537 196.942 693.215 Q 196.804 694.892 197.071 695.709 Q 197.337 696.526 197.337 696.413 Q 197.337 696.300 197.963 696.778 Q 198.588 697.255 198.879 697.096 Q 199.169 696.938 199.789 696.218 Q 200.409 695.499 200.831 694.802 Q 201.253 694.105 201.535 693.510 Q 201.816 692.916 202.112 692.409 Q 202.408 691.903 203.008 690.600 Q 203.608 689.298 203.785 688.350 Q 203.963 687.402 203.847 686.993 Q 203.731 686.584 203.733 686.589 Q 203.735 686.594 203.324 686.329 Q 202.913 686.064 202.792 685.993 Q 202.671 685.922 202.686 686.013 Q 202.700 686.104 202.679 685.777 Q 202.658 685.451 201.256 686.478 Q 199.853 687.506 199.109 688.310 Q 198.365 689.113 196.784 690.188 Q 195.203 691.262 191.367 690.564 Q 187.532 689.866 184.986 688.859 Q 182.440 687.853 181.291 687.472 Q 180.143 687.092 179.668 686.661 Q 179.193 686.231 178.925 685.946 Q 178.657 685.660 178.436 685.353 Q 178.215 685.046 178.268 685.068 Q 178.321 685.090 178.088 684.985 Q 177.855 684.880 176.980 681.058 Q 176.104 677.236 175.551 675.153 Q 174.997 673.071 174.797 671.546 Q 174.597 670.021 174.611 667.996 Q 174.624 665.970 177.113 661.059 Q 177.012 660.823 175.228 664.212 Q 173.444 667.602 172.491 669.419 Q 171.538 671.236 171.043 672.236 Q 170.547 673.236 170.510 673.594 Q 170.473 673.953 170.453 674.261 Q 170.434 674.570 170.447 674.989 Q 170.461 675.408 170.475 676.049 Q 170.490 676.689 170.483 677.924 Q 170.476 679.160 171.015 681.640 Q 171.554 684.120 173.630 688.988 Q 175.706 693.857 177.441 697.081 Q 179.175 700.305 180.275 701.937 Q 181.375 703.570 181.877 703.942 Q 182.380 704.313 182.581 704.672 Q 182.783 705.031 184.829 705.413 Q 186.874 705.795 188.499 705.738 Q 190.124 705.681 191.346 705.692 Q 192.568 705.702 193.120 705.525 Q 193.672 705.348 194.533 705.142 Q 195.393 704.936 197.401 704.410 Q 199.409 703.885 201.999 703.108 Q 204.588 702.331 206.232 701.457 Q 207.876 700.584 208.278 700.240 Q 208.680 699.896 209.426 699.328 Q 210.172 698.759 211.023 697.544 Q 211.875 696.328 213.286 694.169 Q 214.696 692.010 215.107 689.417 Q 215.518 686.823 215.741 685.506 Q 215.964 684.189 216.297 683.446 Q 216.630 682.703 216.653 682.516 Q 216.675 682.329 216.746 682.114 Q 216.818 681.898 216.839 681.762 Q 216.859 681.626 216.851 681.703 Q 216.843 681.780 216.907 680.730 Q 216.972 679.680 216.977 678.457 Q 216.981 677.234 216.566 676.255 Q 216.150 675.277 215.916 674.762 Q 215.683 674.247 215.734 674.314 Q 215.784 674.380 215.759 674.304 Q 215.733 674.228 215.673 673.870 Q 215.614 673.511 215.649 673.504 Q 215.683 673.497 215.698 673.492 Q 215.713 673.487 215.567 673.189 Q 215.421 672.892 216.355 672.571 Q 217.290 672.250 219.210 671.425 Q 221.130 670.601 222.319 670.143 Q 223.508 669.686 223.853 669.621 Q 224.197 669.557 224.370 669.483 Q 224.544 669.410 224.557 669.409 Q 224.570 669.408 224.836 669.313 Q 225.101 669.219 225.292 669.144 Q 225.482 669.070 225.412 669.076 Q 225.341 669.083 226.240 668.819 Q 227.138 668.556 227.913 668.208 Q 228.689 667.860 229.133 667.510 Q 229.578 667.160 229.635 667.146 Q 229.693 667.132 229.850 667.008 Q 230.006 666.885 230.398 666.601 Q 230.790 666.317 230.688 666.340 Q 230.586 666.364 231.219 665.908 Q 231.851 665.452 232.403 665.203 Q 232.954 664.953 233.413 664.785 Q 233.872 664.616 233.798 664.664 Q 233.724 664.712 233.855 664.660 Q 233.987 664.608 235.034 664.547 Q 236.081 664.487 236.553 664.580 Q 237.025 664.673 237.392 664.940 Q 237.760 665.207 237.788 665.249 Q 237.817 665.291 237.825 665.302 Q 237.833 665.313 237.780 665.241 Q 237.726 665.170 238.164 665.693 Q 238.603 666.216 238.668 666.293 Q 238.733 666.370 238.673 666.302 Q 238.613 666.234 238.870 666.585 Q 239.128 666.937 239.450 667.546 Q 239.772 668.156 239.984 668.565 Q 240.196 668.973 240.368 669.185 Q 240.540 669.396 240.415 669.298 Q 240.289 669.199 240.844 669.736 Q 241.398 670.272 242.105 671.080 Q 242.812 671.889 243.113 672.440 Q 243.413 672.990 243.575 673.266 Q 243.737 673.542 243.744 673.556 Q 243.752 673.570 243.787 673.648 Q 243.823 673.727 243.714 673.520 Q 243.606 673.314 244.093 674.401 Q 244.581 675.489 245.355 676.896 Q 246.327 677.169 245.956 677.059 Q 245.981 677.059 246.007 677.059 Q 246.037 677.525 246.037 675.749 Q 246.037 673.973 245.626 672.819 Q 245.215 671.666 244.794 670.778 Q 244.373 669.889 244.124 669.424 Q 243.875 668.960 243.757 668.790 Q 243.639 668.621 243.619 668.607 Q 243.598 668.594 243.230 668.217 Q 242.862 667.840 242.801 667.808 Q 242.739 667.777 242.743 667.777 Q 242.747 667.777 242.822 667.822 Q 242.896 667.866 242.332 667.525 Q 241.769 667.183 241.450 667.033 Q 241.132 666.884 240.706 666.696 Q 240.281 666.508 240.239 666.487 Q 240.198 666.466 240.274 666.502 Q 240.350 666.538 239.840 666.320 Q 239.330 666.103 238.508 665.622 Q 237.686 665.142 237.085 664.830 Q 236.485 664.518 236.047 664.315 Q 235.608 664.113 235.420 664.020 Q 235.231 663.926 235.146 663.875 Q 235.060 663.824 235.159 663.897 Q 235.258 663.970 234.836 663.712 Q 234.413 663.455 233.124 662.698 Q 231.835 661.942 230.511 661.358 Q 229.187 660.773 228.811 660.674 Q 228.435 660.575 227.240 660.106 Q 226.045 659.636 225.164 659.393 Q 224.283 659.150 223.754 658.788 Q 223.226 658.426 219.495 657.985 Q 215.764 657.544 213.815 657.488 Q 211.867 657.432 209.598 657.603 Q 207.329 657.775 206.240 658.017 Q 205.150 658.259 204.434 658.425 Q 203.717 658.591 203.172 658.721 Q 202.628 658.852 202.474 658.905 Q 202.319 658.958 201.235 659.282 Q 200.151 659.606 199.151 659.664 Q 198.151 659.721 197.915 659.705 Q 197.679 659.690 197.414 659.696 Q 197.150 659.702 197.039 659.699 Q 196.928 659.697 196.955 659.698 Q 196.981 659.699 196.820 659.671 Q 196.658 659.644 196.856 659.708 Q 197.054 659.772 195.887 659.747 Q 194.719 659.722 193.942 659.530 Q 193.164 659.339 192.745 659.225 Q 192.326 659.111 192.194 659.088 Q 192.062 659.064 192.088 659.077 Q 192.115 659.090 191.739 659.046 Q 191.363 659.002 191.063 658.999 Q 190.555 658.269 190.705 658.510 Q 190.258 657.775 190.411 657.993 Q 190.411 656.709 190.411 657.097 Q 190.411 656.304 190.411 656.393 Q 190.551 655.516 190.539 655.660 Q 190.574 655.499 190.659 655.125 Q 190.744 654.751 190.729 654.593 Q 190.714 654.435 190.686 654.633 Q 190.658 654.831 190.936 652.343 Q 191.215 649.854 191.282 648.823 Q 191.349 647.791 191.259 646.655 Q 191.169 645.519 191.010 644.560 Q 190.850 643.600 190.746 642.938 Q 190.642 642.276 190.402 641.898 Q 190.162 641.520 190.222 641.618 Q 190.283 641.715 190.269 641.697 Q 190.254 641.679 190.152 641.537 Q 190.050 641.396 189.862 641.044 Q 190.275 641.203 190.169 641.167 Q 190.063 641.130 191.382 641.801 Q 191.382 641.830 191.382 641.858 Q 191.157 641.812 191.054 641.862 Q 190.952 641.913 189.262 640.990 Q 187.573 640.068 186.507 639.446 Q 185.442 638.823 185.010 638.723 Q 184.577 638.623 184.383 638.524 Q 184.188 638.426 183.708 638.350 Q 183.228 638.273 182.882 638.274 Q 182.536 638.275 182.268 638.275 Q 182.001 638.275 182.122 638.275 Q 182.243 638.275 182.114 638.275 Q 181.985 638.275 182.095 638.307 Q 182.205 638.339 181.984 638.174 Q 181.763 638.008 177.611 638.898 Q 177.611 639.324 177.611 639.281 Q 177.622 640.406 177.637 640.009 Q 177.869 640.368 177.905 640.364 Q 178.271 641.046 178.199 640.958 Q 178.370 641.354 178.390 641.341 Q 178.370 641.331 178.752 641.576 Q 179.134 641.820 179.171 641.803 Q 179.209 641.786 179.172 641.828 Q 179.136 641.871 179.882 641.904 Q 180.628 641.938 181.586 642.323 Q 182.544 642.708 182.880 643.037 Q 183.216 643.367 183.166 643.396 Q 183.116 643.425 184.024 643.886 Q 184.933 644.347 186.623 645.632 Q 188.314 646.918 189.227 647.962 Q 190.141 649.006 190.564 649.406 Q 190.987 649.807 190.875 649.685 Q 190.763 649.562 192.297 650.838 Q 193.832 652.114 195.587 654.024 Q 197.342 655.933 198.294 656.875 Q 199.246 657.818 199.773 658.365 Q 200.300 658.912 200.645 659.258 Q 200.990 659.605 201.307 659.921 Q 201.625 660.238 201.876 660.451 Q 202.128 660.665 201.945 660.501 Q 201.762 660.338 202.154 660.692 Q 202.545 661.047 202.719 661.295 Q 202.893 661.543 203.982 661.808 Q 205.072 662.074 205.640 661.838 Q 206.209 661.602 206.607 661.339 Q 207.005 661.075 208.146 659.320 Q 209.288 657.566 209.910 655.869 Q 210.532 654.173 212.060 652.255 Q 213.589 650.337 214.619 649.318 Q 215.650 648.299 216.051 647.910 Q 216.452 647.522 216.471 647.489 Q 216.490 647.457 216.870 647.038 Q 217.250 646.618 217.289 646.567 Q 217.329 646.516 217.435 646.482 Q 217.541 646.449 217.455 646.464 Q 217.369 646.480 218.656 644.758 Q 219.942 643.036 221.350 641.874 Q 222.758 640.712 223.336 640.320 Q 223.914 639.927 224.387 639.684 Q 224.860 639.441 224.814 639.459 Q 224.767 639.476 224.827 639.447 Q 224.887 639.418 224.731 639.482 Q 224.576 639.546 225.452 639.195 Q 225.999 639.008 226.237 638.933 Q 226.474 638.857 226.429 638.927 Q 226.629 639.129 227.331 638.786 Q 228.033 638.444 228.452 638.031 Q 228.872 637.619 228.897 637.600 Q 228.923 637.582 228.990 637.494 Q 229.057 637.406 229.345 637.200 Q 229.632 636.993 229.952 636.817 Q 230.271 636.640 230.794 636.277 Q 231.317 635.914 231.781 635.602 Q 232.245 635.290 232.247 635.302 Q 232.250 635.314 232.242 635.302 Q 232.235 635.290 232.700 635.242 Q 233.166 635.194 233.059 635.203 Q 232.952 635.211 232.905 635.221 Q 232.858 635.231 234.509 634.855 Q 234.779 634.802 234.710 634.814 Q 234.642 634.826 234.664 634.820 Q 234.686 634.813 234.681 634.812 Q 234.677 634.811 234.679 634.812 Q 234.681 634.812 234.700 634.808 Q 234.719 634.804 234.715 634.803 Q 234.711 634.801 234.701 634.802 Q 234.691 634.802 234.722 634.796 Q 234.754 634.791 234.741 634.793 Q 234.728 634.796 234.739 634.794 Q 234.751 634.793 234.712 634.798 Q 234.672 634.803 234.657 634.806 Q 234.641 634.809 234.675 634.803 Q 234.710 634.797 234.252 634.902 Q 233.794 635.007 233.206 635.181 Q 233.852 635.181 233.749 635.181 Q 234.988 635.005 234.535 635.075 Q 234.592 635.046 234.842 634.912 Q 234.842 634.883 234.842 634.807 Q 234.978 634.771 233.382 634.727 Q 231.786 634.684 230.685 635.214 Q 229.585 635.745 228.975 636.094 Q 228.366 636.444 228.085 636.637 Q 227.803 636.829 227.683 636.904 Q 227.564 636.979 227.211 637.239 Q 226.858 637.500 226.217 637.979 Q 225.576 638.459 224.718 639.109 Q 223.860 639.760 223.111 640.325 Q 222.361 640.891 220.855 641.922 Q 219.349 642.954 217.714 644.220 Q 216.079 645.486 214.636 647.419 Q 213.193 649.352 211.234 651.434 Q 209.275 653.517 204.973 657.291 Q 200.672 661.066 198.424 663.155 Q 196.177 665.243 195.083 666.483 Q 193.990 667.722 192.510 669.352 Q 191.031 670.982 188.895 672.458 Q 186.758 673.935 185.605 674.596 Q 184.452 675.258 183.604 675.708 Q 182.755 676.159 181.974 676.425 Q 181.192 676.691 180.316 676.871 Q 179.439 677.051 178.982 677.087 Q 178.524 677.123 178.697 677.157 Q 178.870 677.191 176.740 677.356 Q 174.611 677.521 172.553 677.589 Q 170.495 677.658 169.608 677.728 Q 168.720 677.797 167.851 677.767 Q 166.982 677.738 166.869 677.752 Q 166.757 677.765 165.922 677.658 Q 165.087 677.550 164.657 677.520 Q 164.228 677.490 163.963 677.279 Q 163.698 677.068 163.617 677.014 Q 163.536 676.961 163.461 676.825 Q 163.386 676.689 163.498 676.859 Q 163.609 677.030 163.399 676.712 Q 163.190 676.395 162.933 676.004 Q 162.677 675.613 162.467 675.382 Q 162.258 675.151 162.326 675.228 Q 162.394 675.305 162.376 675.293 Q 162.359 675.280 162.255 675.143 Q 162.151 675.005 161.918 674.653 Q 161.686 674.302 161.707 674.330 Q 161.728 674.359 161.724 674.331 Q 161.719 674.304 161.526 674.050 Q 161.332 673.797 161.134 673.606 Q 160.935 673.416 160.939 673.424 Q 160.944 673.431 160.981 673.454 Q 161.019 673.477 160.453 673.036 Q 159.886 672.596 159.983 672.684 Q 160.079 672.772 160.075 672.739 Q 160.070 672.706 159.869 672.584 Q 159.667 672.462 159.576 672.427 Q 159.485 672.393 158.960 672.194 Q 158.434 671.995 158.413 671.974 Q 158.392 671.954 158.382 671.940 Q 158.373 671.927 158.418 671.981 Q 158.464 672.035 158.159 671.851 Q 157.854 671.667 157.408 671.326 Q 156.962 670.985 156.992 671.021 Q 157.023 671.057 156.984 671.016 Q 156.945 670.976 156.974 671.000 Q 157.002 671.025 157.025 671.057 Q 157.049 671.090 156.526 670.690 Q 156.003 670.291 155.546 669.872 Q 155.089 669.453 155.126 669.497 Q 155.163 669.542 155.160 669.540 Q 155.157 669.538 155.047 669.412 Q 154.937 669.287 154.614 668.976 Q 154.290 668.666 154.265 668.658 Q 154.239 668.650 154.251 668.653 Q 154.262 668.655 154.138 668.536 Q 154.015 668.417 153.741 668.054 Q 153.468 667.692 153.525 667.771 Q 153.583 667.850 153.511 667.693 Q 153.439 667.536 153.247 667.358 Q 153.054 667.179 152.747 666.768 Q 152.440 666.357 152.229 665.869 Q 152.017 665.381 151.970 664.959 Q 151.924 664.538 151.563 663.176 Q 152.007 664.316 151.915 663.957 Q 152.318 664.483 152.272 664.446 Q 152.469 664.601 152.700 665.102 Q 152.931 665.602 153.194 666.089 Q 153.457 666.576 153.543 666.539 Q 154.431 667.614 154.093 667.243 Q 154.223 667.967 154.195 667.785 Q 154.015 667.715 154.660 668.675 Q 155.306 669.635 155.938 671.468 Q 156.570 673.302 156.762 674.380 Q 156.954 675.458 156.937 675.163 Q 156.920 674.868 157.190 676.319 Q 157.459 677.770 157.320 679.096 Q 157.181 680.421 156.949 681.288 Q 156.717 682.155 156.655 682.628 Q 156.592 683.100 156.346 684.359 Q 156.100 685.618 155.964 686.226 Q 155.827 686.834 155.809 687.097 Q 155.791 687.359 155.788 687.416 Q 155.785 687.473 155.783 687.425 Q 155.782 687.376 155.823 687.599 Q 155.864 687.822 155.625 688.876 Q 155.386 689.930 155.224 690.387 Q 155.062 690.844 155.062 691.161 Q 155.061 691.478 155.017 691.690 Q 154.973 691.902 154.925 692.218 Q 154.877 692.533 154.911 692.352 Q 154.945 692.172 154.839 692.514 Q 154.734 692.856 154.655 694.362 Q 154.641 694.526 155.014 693.397 Q 155.386 692.268 155.774 690.552 Q 156.161 688.836 156.206 687.859 Q 156.251 686.883 156.561 685.524 Q 156.871 684.165 157.318 682.128 Q 157.766 680.091 157.294 677.197 Q 156.822 674.302 156.552 672.747 Q 156.282 671.193 156.100 668.452 Q 155.917 665.711 155.690 662.094 Q 156.167 662.178 156.111 662.161 Q 156.055 662.144 156.068 662.063 Q 156.081 661.981 156.555 663.015 Q 157.029 664.049 156.928 663.817 Q 156.828 663.584 157.707 666.001 Q 158.586 668.418 158.247 673.764 Q 157.908 679.109 157.190 682.895 Q 156.472 686.680 155.885 688.215 Q 155.298 689.750 154.887 691.003 Q 154.476 692.256 153.927 693.395 Q 153.378 694.534 152.772 695.554 Q 152.165 696.573 152.073 697.161 Q 151.981 697.748 152.044 698.080 Q 152.106 698.412 152.293 698.728 Q 152.479 699.043 152.444 698.940 Q 152.410 698.836 152.898 699.383 Q 153.386 699.929 156.502 700.103 Q 159.617 700.276 163.725 699.602 Q 167.834 698.927 170.302 698.441 Q 172.769 697.954 174.683 698.375 Q 176.597 698.795 180.515 699.526 Q 184.433 700.256 187.111 700.248 Q 189.789 700.239 191.701 700.570 Q 193.614 700.901 194.613 701.230 Q 195.611 701.559 195.861 701.669 Q 196.110 701.780 196.488 701.997 Q 196.867 702.215 196.833 702.205 Q 196.799 702.194 196.787 702.179 Q 196.774 702.163 196.782 702.172 Q 196.791 702.180 196.836 702.230 Q 196.881 702.280 196.794 702.159 Q 196.706 702.039 197.565 703.043 Q 196.459 703.411 196.805 703.292 Q 195.502 703.918 191.911 704.532 Q 188.320 705.147 185.791 706.459 Q 183.262 707.772 182.249 708.634 Q 181.237 709.496 180.869 710.004 Q 180.501 710.511 180.422 710.738 Q 180.343 710.965 180.155 711.550 Q 179.968 712.135 179.733 713.068 Q 179.499 714.000 176.244 720.509 Q 176.428 720.316 177.275 719.193 Q 178.122 718.070 178.665 717.374 Q 179.208 716.678 179.771 716.045 Q 180.334 715.412 180.750 714.932 Q 181.167 714.452 182.316 713.133 Q 183.465 711.814 184.480 710.850 Q 185.494 709.886 188.577 708.490 Q 191.661 707.093 193.395 706.488 Q 195.129 705.883 195.885 705.759 Q 196.640 705.635 198.202 705.190 Q 199.763 704.745 201.277 704.378 Q 202.791 704.010 204.870 704.032 Q 206.949 704.053 207.851 704.062 Q 208.753 704.070 209.202 704.104 Q 209.652 704.138 210.388 704.276 Q 211.124 704.415 211.463 704.428 Q 211.801 704.441 212.830 704.741 Q 213.859 705.041 215.422 705.532 Q 216.985 706.024 218.280 706.845 Q 219.576 707.666 220.095 708.291 Q 220.613 708.917 220.765 708.998 Q 220.916 709.079 221.155 709.283 Q 221.394 709.488 221.355 709.447 Q 221.315 709.406 221.350 709.457 Q 221.385 709.508 222.437 710.393 Q 223.490 711.277 224.116 711.770 Q 224.742 712.262 225.185 712.505 Q 225.628 712.748 225.607 712.757 Q 225.587 712.766 225.568 712.740 Q 225.549 712.714 225.562 712.701 Q 225.574 712.687 226.057 713.194 Q 226.540 713.702 226.863 714.097 Q 227.186 714.492 227.293 714.597 Q 227.401 714.703 227.712 715.016 Q 228.024 715.330 228.037 715.350 Q 228.050 715.370 228.107 715.519 Q 228.165 715.667 228.154 715.428 Q 228.142 715.188 228.789 716.332 Q 229.437 717.477 229.580 718.131 Q 229.723 718.784 229.914 719.176 Q 230.106 719.567 230.142 719.850 Q 230.178 720.133 230.170 720.104 Q 230.162 720.075 230.163 720.122 Q 230.165 720.168 230.166 720.787 Q 229.355 720.787 229.572 720.787 Q 229.463 720.787 228.927 720.787 Q 228.826 720.865 228.855 720.953 Q 228.885 721.040 228.862 720.947 Q 228.839 720.854 229.198 721.478 Q 229.558 722.102 229.604 722.085 Q 229.949 722.549 229.923 722.521 Q 230.461 723.137 230.307 722.928 Q 230.358 722.981 230.549 723.067 Q 230.549 723.091 230.600 723.115 Q 230.915 723.409 230.907 723.364 Q 231.337 723.502 231.252 723.498 Q 231.541 723.713 231.520 723.743 Q 232.350 724.576 232.189 724.411 Q 232.029 724.245 232.088 724.362 Q 232.147 724.479 232.130 724.812 Q 232.113 725.144 232.118 725.131 Q 232.123 725.118 232.086 725.221 Q 232.048 725.324 232.086 725.287 Q 232.125 725.250 232.192 725.577 Q 232.258 725.904 231.976 726.097 Q 231.694 726.289 231.435 726.530 Q 231.175 726.771 231.169 726.775 Q 231.163 726.779 230.973 726.923 Q 230.783 727.066 230.537 727.249 Q 230.292 727.431 230.339 727.396 Q 230.385 727.362 230.339 727.390 Q 230.292 727.418 230.317 727.403 Q 230.342 727.387 230.429 727.330 Q 230.516 727.272 230.448 727.315 Q 230.380 727.357 230.121 727.534 Q 229.862 727.710 229.534 727.931 Q 229.207 728.152 229.049 728.331 Q 228.891 728.511 228.836 728.577 Q 228.781 728.644 228.801 728.617 Q 228.821 728.590 228.503 729.109 Q 228.185 729.629 228.094 729.814 Q 228.002 730.000 227.948 730.048 Q 227.894 730.096 227.986 729.992 Q 228.078 729.889 227.844 730.178 Q 227.610 730.467 227.403 730.729 Q 227.197 730.990 227.256 730.976 Q 227.314 730.962 227.265 730.879 Q 227.215 730.796 226.712 731.584 Q 226.208 732.372 226.148 732.875 Q 226.087 733.377 226.103 733.702 Q 226.119 734.027 226.106 734.049 Q 226.093 734.070 226.098 734.132 Q 226.102 734.194 226.103 734.182 Q 226.103 734.171 226.111 734.048 Q 226.120 733.926 226.053 734.890 Q 226.078 734.890 226.321 734.890 Q 226.934 733.939 226.781 734.215 Q 226.956 733.966 227.204 733.682 Q 227.453 733.397 228.087 732.870 Q 228.721 732.344 229.303 732.057 Q 229.886 731.770 230.344 731.558 Q 230.801 731.345 230.703 731.446 Q 230.604 731.547 230.451 731.512 Q 230.298 731.477 231.695 731.046 Q 233.093 730.616 234.029 730.621 Q 234.966 730.626 235.484 730.601 Q 236.003 730.576 236.847 730.585 Q 237.691 730.594 238.226 730.650 Q 238.761 730.705 239.116 730.742 Q 239.471 730.780 239.436 730.778 Q 239.402 730.777 239.356 730.751 Q 239.311 730.726 239.314 730.724 Q 239.318 730.723 239.982 730.918 Q 240.647 731.113 241.029 731.333 Q 241.411 731.553 241.713 731.673 Q 242.014 731.793 242.067 731.772 Q 242.121 731.752 241.772 731.780 Q 241.424 731.807 245.470 732.016 Q 245.470 732.040 245.470 732.064 Q 245.496 732.064 245.521 732.064 Q 245.083 732.135 245.112 732.121 Q 245.565 732.373 243.173 732.499 Q 240.780 732.624 239.096 732.895 Q 237.412 733.165 234.915 734.127 Q 232.418 735.088 231.239 735.503 Q 230.061 735.917 228.883 736.551 Q 227.705 737.184 226.999 737.722 Q 226.293 738.260 226.031 738.507 Q 225.769 738.754 225.633 738.878 Q 225.497 739.002 225.529 738.973 Q 225.561 738.945 225.448 739.048 Q 225.335 739.152 224.760 739.681 Q 224.186 740.210 223.788 740.571 Q 223.390 740.931 223.222 741.053 Q 223.053 741.175 223.157 741.133 Q 223.261 741.091 222.390 741.782 Q 221.519 742.473 220.635 743.083 Q 219.751 743.694 219.257 744.232 Q 218.763 744.771 218.832 744.713 Q 218.901 744.655 218.891 744.656 Q 218.882 744.656 218.896 744.642 Q 218.910 744.628 218.494 745.155 Q 218.078 745.682 218.158 745.630 Q 217.839 746.065 217.883 746.009 Q 217.821 746.169 217.532 746.828 Q 217.506 746.828 217.481 746.828 Q 217.219 746.829 218.759 745.488 Q 220.300 744.146 221.147 743.303 Q 221.994 742.459 222.531 742.042 Q 223.069 741.625 223.421 741.364 Q 223.773 741.103 223.925 741.010 Q 224.078 740.916 224.339 740.735 Q 224.600 740.555 224.580 740.568 Q 224.560 740.582 224.598 740.564 Q 224.635 740.546 224.562 740.581 Q 224.490 740.617 224.838 740.424 Q 225.186 740.231 225.793 739.882 Q 226.399 739.532 226.756 739.315 Q 227.114 739.098 227.122 739.094 Q 227.130 739.090 227.157 739.071 Q 227.184 739.052 227.573 738.847 Q 226.832 738.849 226.889 738.905 Q 226.610 738.698 223.954 741.221 Q 221.299 743.743 219.830 745.248 Q 218.361 746.753 217.945 747.831 Q 217.530 748.909 217.594 749.619 Q 217.657 750.329 217.569 750.774 Q 217.480 751.218 217.319 751.621 Q 217.157 752.023 216.846 752.570 Q 216.534 753.117 216.558 753.054 Q 216.582 752.992 216.535 753.137 Q 216.487 753.283 216.368 753.428 Q 216.249 753.574 216.158 754.065 Q 216.067 754.555 216.013 755.003 Q 215.959 755.451 215.846 755.719 Q 215.820 755.719 215.794 755.719 Q 215.930 755.643 215.707 754.585 Q 215.484 753.527 216.400 751.554 Q 217.315 749.580 218.208 748.379 Q 219.102 747.178 219.637 746.326 Q 220.171 745.474 221.167 744.240 Q 222.162 743.007 222.753 742.354 Q 223.345 741.702 225.510 739.280 Q 227.675 736.858 228.516 735.762 Q 229.357 734.665 230.627 733.611 Q 231.897 732.557 232.989 731.527 Q 234.082 730.496 235.786 729.134 Q 237.491 727.772 238.443 727.240 Q 239.396 726.708 240.137 726.314 Q 240.879 725.920 241.413 725.519 Q 241.947 725.118 242.268 724.793 Q 242.588 724.467 242.652 724.376 Q 242.716 724.285 242.735 724.261 Q 242.754 724.237 243.031 723.869 Q 243.308 723.501 243.390 723.381 Q 243.472 723.260 243.350 723.357 Q 243.228 723.453 244.222 722.412 Q 245.217 721.372 245.927 720.599 Q 246.636 719.827 246.762 719.697 Q 246.888 719.568 247.678 718.128 Q 248.467 716.687 249.205 714.051 Q 249.942 711.415 250.324 710.117 Q 250.707 708.819 250.469 708.380 Q 250.231 707.942 250.728 705.563 Q 251.225 703.184 251.547 701.779 Q 251.870 700.374 251.849 698.788 Q 251.829 697.201 252.309 695.504 Q 252.789 693.807 252.907 692.600 Q 253.024 691.394 253.045 690.640 Q 253.066 689.887 253.042 689.954 Q 253.018 690.021 253.178 689.098 Q 253.338 688.174 253.545 686.525 Q 253.752 684.876 253.712 682.951 Q 253.671 681.026 253.937 680.161 Q 254.203 679.297 254.437 678.825 Q 254.670 678.353 254.834 678.028 Q 254.997 677.704 255.135 677.492 Q 255.273 677.279 255.962 676.323 Q 256.650 675.367 256.998 674.815 Q 257.346 674.262 257.423 674.101 Q 257.500 673.940 257.709 673.407 Q 257.918 672.875 257.930 672.869 Q 257.942 672.864 258.043 672.299 Q 258.144 671.734 258.114 671.833 Q 258.085 671.932 258.101 671.860 Q 258.118 671.789 258.176 671.547 Q 258.233 671.305 258.107 670.464 Q 257.981 669.623 257.599 668.037 Q 257.216 666.452 256.909 665.712 Q 256.602 664.973 256.490 664.671 Q 256.379 664.369 256.276 664.144 Q 256.173 663.920 256.091 663.684 Q 256.009 663.447 256.061 663.676 Q 256.114 663.906 255.498 661.442 Q 255.956 661.980 255.882 662.065 Q 256.016 662.362 256.153 662.551 Q 256.290 662.740 256.482 662.956 "></path>
    <path id="STROKE_4a976237-25af-4836-90bd-4ffc59a41d23" opacity="1.000" fill="none" stroke="#dbf8e3" stroke-width="23.009" stroke-opacity="1.000" stroke-linecap="round" stroke-linejoin="round" d="M 166.919 720.078 Q 166.845 719.502 166.836 719.618 Q 166.804 719.537 166.804 719.264 Q 166.778 719.264 166.701 719.264 Q 166.773 719.163 166.692 719.294 Q 166.612 719.425 166.745 719.271 Q 166.878 719.117 166.398 719.710 Q 165.919 720.303 165.390 721.043 Q 164.860 721.782 164.558 722.333 Q 164.255 722.885 164.386 722.704 Q 164.517 722.522 163.749 723.400 Q 162.981 724.279 162.460 725.305 Q 161.939 726.331 161.594 727.479 Q 161.248 728.627 161.143 729.175 Q 161.038 729.723 161.036 729.815 Q 161.034 729.908 161.082 730.084 Q 161.130 730.260 160.932 732.250 Q 160.734 734.239 160.570 737.602 Q 160.595 737.602 160.621 737.602 Q 160.653 737.477 160.674 736.933 Q 160.696 736.390 160.687 736.404 Q 160.678 736.418 160.688 736.519 Q 160.698 736.619 160.621 734.402 Q 160.621 735.260 160.653 735.053 Q 160.896 735.806 160.909 735.844 Q 160.922 735.883 160.902 735.891 Q 161.047 737.157 161.004 736.816 Q 161.134 737.593 161.144 737.573 Q 161.282 738.268 161.400 738.721 Q 161.518 739.174 161.513 739.156 Q 161.509 739.138 161.512 739.104 Q 161.514 739.070 161.579 739.550 Q 161.644 740.031 161.614 739.899 Q 161.583 739.767 161.691 740.069 Q 161.799 740.372 161.908 740.760 Q 162.016 741.147 162.035 741.272 Q 162.055 741.396 162.055 741.362 Q 162.055 741.327 162.144 741.890 Q 162.234 742.453 162.288 742.475 Q 162.342 742.498 162.339 742.531 Q 162.337 742.564 162.311 742.456 Q 162.285 742.349 162.515 742.628 Q 162.744 742.906 162.716 742.839 Q 162.688 742.771 162.687 742.779 Q 162.687 742.786 162.805 742.918 Q 162.923 743.050 162.944 743.124 Q 162.965 743.197 162.898 743.039 Q 162.830 742.880 162.869 742.965 Q 162.909 743.051 163.388 743.945 Q 163.867 744.839 163.936 744.682 Q 164.115 744.754 164.364 744.816 Q 164.364 744.845 164.364 744.874 Q 164.396 744.874 164.427 744.874 Q 164.883 744.991 164.978 745.026 Q 165.073 745.060 165.232 745.142 "></path>
    <path id="STROKE_00364b2b-8c42-49a0-a080-92a0eb424071" opacity="1.000" fill="none" stroke="#dbf8e3" stroke-width="23.044" stroke-opacity="1.000" stroke-linecap="round" stroke-linejoin="round" d="M 135.782 672.680 Q 135.664 672.991 136.175 670.802 Q 135.702 670.745 135.799 670.757 Q 135.016 670.661 135.281 670.693 Q 135.343 670.672 134.126 670.497 Q 132.909 670.322 131.400 670.077 Q 129.890 669.831 129.153 669.929 Q 128.415 670.026 127.970 670.370 Q 127.524 670.715 126.916 670.899 Q 126.308 671.083 125.437 671.307 Q 124.566 671.530 124.125 671.739 Q 123.683 671.949 122.917 672.434 Q 122.152 672.920 121.876 673.073 Q 121.601 673.225 121.418 673.303 Q 121.236 673.380 120.914 673.523 Q 120.591 673.665 120.773 673.560 Q 120.954 673.455 120.018 673.798 Q 119.082 674.140 118.275 674.686 Q 117.468 675.232 115.919 675.830 Q 115.766 676.089 115.743 676.081 Q 115.466 676.360 115.549 676.271 Q 115.632 676.181 115.616 676.201 Q 115.601 676.221 115.609 676.213 Q 115.617 676.206 115.589 676.235 Q 115.561 676.264 115.380 676.442 Q 115.198 676.619 115.035 676.770 Q 114.873 676.921 114.885 676.897 Q 114.897 676.874 114.862 676.921 Q 114.824 676.916 114.767 676.928 L 114.764 676.947 Q 114.697 677.034 114.560 677.488 Q 114.423 677.941 114.452 677.855 Q 114.480 677.769 114.490 677.797 Q 114.500 677.824 114.332 678.065 Q 114.164 678.306 114.169 678.306 Q 114.174 678.307 114.200 678.274 Q 114.057 678.824 114.044 678.868 Q 114.032 678.911 114.067 678.803 Q 114.013 679.438 114.052 679.395 Q 114.090 679.352 114.163 679.486 "></path>
    <path id="STROKE_b237bd7a-45cb-4c1e-80c5-88239c3a649f" opacity="1.000" fill="none" stroke="#dbf8e3" stroke-width="22.443" stroke-opacity="1.000" stroke-linecap="round" stroke-linejoin="round" d="M -241.186 883.928 Q -241.633 883.452 -242.212 883.261 Q -242.790 883.069 -242.749 880.230 Q -242.708 877.391 -242.811 875.973 Q -242.915 874.555 -242.863 871.836 Q -242.811 869.117 -242.628 867.912 Q -242.445 866.707 -241.950 864.286 Q -241.454 861.865 -241.492 858.066 Q -241.530 854.267 -241.471 852.501 Q -241.412 850.734 -242.196 849.027 Q -242.980 847.320 -242.877 843.629 Q -242.774 839.939 -242.830 837.951 Q -242.886 835.963 -242.635 834.582 Q -242.384 833.201 -242.262 832.489 Q -242.141 832.359 -242.391 836.124 Q -242.640 839.889 -242.991 842.735 Q -243.343 845.582 -243.349 847.087 Q -243.356 848.593 -243.209 849.260 Q -243.061 849.928 -243.471 853.239 Q -243.881 856.550 -244.761 859.929 Q -245.642 863.307 -245.955 865.685 Q -246.268 868.062 -246.281 869.217 Q -246.295 870.371 -246.505 871.665 Q -246.715 872.958 -247.076 873.470 Q -247.436 873.982 -247.721 874.721 Q -248.007 875.460 -248.360 876.273 Q -248.712 877.086 -248.963 877.474 Q -249.213 877.862 -249.135 877.741 Q -249.058 877.620 -249.405 878.220 Q -249.753 878.820 -249.839 878.969 Q -249.925 879.118 -249.998 879.285 Q -250.070 879.452 -250.209 879.789 Q -250.348 880.125 -250.417 880.354 Q -250.486 880.583 -250.462 880.509 Q -250.437 880.434 -250.438 880.442 Q -250.439 880.450 -250.497 880.664 Q -250.555 880.878 -250.620 881.570 Q -250.685 882.263 -250.663 882.179 Q -250.641 882.096 -250.672 882.394 Q -250.704 882.693 -250.686 882.878 Q -250.668 883.062 -250.627 884.713 Q -250.586 886.365 -250.674 887.348 Q -250.762 888.332 -250.901 888.699 Q -251.041 889.066 -251.144 889.597 Q -251.247 890.127 -251.248 890.153 Q -251.250 890.180 -251.292 890.224 Q -251.334 890.269 -251.236 890.198 Q -251.139 890.127 -251.339 890.833 Q -251.540 891.539 -251.935 892.077 Q -252.331 892.615 -252.279 892.561 Q -252.227 892.507 -252.213 892.460 Q -252.198 892.414 -252.455 893.075 Q -252.712 893.736 -252.920 894.088 Q -253.128 894.441 -252.981 894.216 Q -252.833 893.991 -253.228 894.546 Q -253.623 895.101 -253.913 895.564 Q -254.204 896.028 -254.315 896.337 Q -254.425 896.646 -254.414 896.622 Q -254.403 896.598 -254.420 896.613 Q -254.437 896.627 -254.637 897.034 Q -254.837 897.440 -254.850 897.389 Q -254.864 897.339 -254.854 897.356 Q -254.845 897.373 -254.998 897.444 Q -255.150 897.515 -255.408 897.895 Q -255.666 898.276 -255.652 898.260 Q -255.638 898.244 -255.585 898.158 Q -255.533 898.071 -255.670 898.300 Q -255.807 898.529 -256.099 898.931 Q -256.390 899.333 -256.345 899.256 Q -256.301 899.180 -256.350 899.234 Q -256.400 899.289 -256.732 899.762 Q -257.063 900.236 -257.733 900.915 Q -258.402 901.595 -259.026 902.009 Q -259.651 902.423 -260.054 902.861 Q -260.458 903.298 -260.717 903.777 Q -260.976 904.257 -261.120 904.494 Q -261.265 904.731 -261.273 904.777 Q -261.282 904.823 -261.568 905.178 Q -261.854 905.532 -262.094 905.798 "></path>
    <path id="STROKE_09a2bc6c-eec6-496e-a671-a5ac3b020142" opacity="1.000" fill="none" stroke="#dbf8e3" stroke-width="19.209" stroke-opacity="1.000" stroke-linecap="round" stroke-linejoin="round" d="M -231.782 877.634 Q -232.021 877.620 -232.025 877.614 Q -232.029 877.608 -232.921 877.772 Q -233.343 877.173 -232.466 879.073 Q -231.589 880.973 -231.080 882.149 Q -230.571 883.325 -230.149 883.650 Q -229.727 883.976 -229.335 884.148 Q -228.943 884.321 -229.025 884.291 Q -229.107 884.261 -229.091 884.269 Q -229.075 884.278 -228.779 884.412 Q -228.482 884.547 -228.043 885.048 Q -227.603 885.549 -227.416 885.841 Q -227.230 886.134 -226.918 886.516 Q -226.607 886.899 -226.545 886.934 Q -226.484 886.968 -226.476 886.975 Q -226.468 886.982 -226.414 887.015 Q -226.361 887.049 -226.385 887.059 Q -226.410 887.068 -225.865 887.297 Q -225.320 887.527 -225.241 887.488 Q -225.161 887.450 -224.580 887.663 Q -223.998 887.877 -223.567 888.114 Q -223.136 888.350 -223.101 888.339 Q -223.065 888.327 -223.061 888.347 Q -223.056 888.367 -223.106 888.310 Q -223.155 888.254 -222.817 888.376 Q -222.480 888.498 -221.912 888.859 Q -221.345 889.219 -221.351 889.211 Q -221.357 889.203 -221.187 889.287 Q -221.017 889.372 -220.866 889.426 Q -220.714 889.479 -220.664 889.499 Q -220.614 889.519 -220.444 889.534 Q -220.275 889.548 -220.349 889.479 Q -220.424 889.409 -218.886 889.913 Q -217.348 890.417 -216.527 890.685 Q -215.706 890.953 -215.498 891.003 Q -215.289 891.053 -215.159 891.111 Q -215.029 891.169 -214.572 891.379 Q -214.115 891.590 -214.142 891.607 Q -214.170 891.625 -214.165 891.630 Q -214.159 891.636 -213.842 891.944 Q -213.525 892.252 -213.378 892.355 Q -213.232 892.458 -213.284 892.431 Q -213.337 892.404 -213.271 892.403 Q -213.204 892.402 -213.213 892.449 Q -213.222 892.496 -212.984 892.872 Q -212.745 893.247 -212.466 893.407 Q -212.187 893.567 -211.866 893.790 Q -211.545 894.014 -211.625 893.939 Q -211.705 893.865 -211.695 893.905 Q -211.686 893.944 -211.352 893.987 Q -211.018 894.029 -210.986 894.035 Q -210.955 894.041 -211.039 894.027 Q -211.438 893.979 -210.394 894.207 Q -209.349 894.436 -209.166 894.464 "></path>
    <path id="STROKE_8e03ea9f-c631-4ec0-8040-5e5a86fc6a34" opacity="1.000" fill="none" stroke="#dbf8e3" stroke-width="24.474" stroke-opacity="1.000" stroke-linecap="round" stroke-linejoin="round" d="M -249.792 837.226 Q -248.746 837.226 -249.122 837.226 L -249.096 837.226 Q -249.171 837.633 -249.153 837.556 Q -249.134 837.479 -249.138 837.461 Q -249.141 837.443 -249.389 838.110 Q -249.636 838.776 -249.671 839.068 Q -249.705 839.359 -249.701 839.320 Q -249.697 839.281 -249.724 839.564 Q -249.751 839.848 -249.746 839.973 Q -249.740 840.099 -249.741 840.750 Q -249.742 841.401 -249.704 841.248 Q -249.665 841.095 -249.691 841.781 Q -249.718 842.466 -249.843 844.066 Q -249.969 845.666 -248.172 850.819 Q -248.491 850.377 -248.784 849.553 Q -249.077 848.729 -249.228 847.753 Q -249.379 846.778 -249.359 845.575 Q -249.339 844.372 -249.406 843.335 Q -249.472 842.299 -248.684 839.522 Q -247.895 836.745 -247.537 835.282 Q -247.179 833.820 -246.608 832.723 Q -246.037 831.625 -245.837 831.077 Q -245.638 830.529 -245.549 830.082 Q -245.461 829.635 -245.385 829.354 Q -245.309 829.073 -245.224 828.822 Q -245.139 828.571 -245.211 828.706 Q -245.283 828.841 -244.975 828.120 Q -244.667 827.399 -244.418 826.953 Q -244.169 826.506 -243.866 825.982 Q -243.563 825.457 -243.221 824.849 Q -242.880 824.242 -242.767 824.053 Q -242.654 823.864 -242.432 823.551 Q -242.209 823.237 -242.011 822.947 Q -241.812 822.656 -241.809 822.666 Q -241.806 822.677 -241.880 822.723 Q -241.953 822.769 -241.566 822.317 Q -241.179 821.864 -240.682 821.414 Q -240.185 820.964 -240.253 821.025 Q -240.322 821.086 -240.258 821.026 Q -240.193 820.965 -240.329 821.087 Q -240.464 821.209 -239.899 820.786 Q -239.333 820.363 -238.931 819.952 Q -238.529 819.541 -238.530 819.544 Q -238.531 819.548 -238.569 819.576 Q -238.607 819.604 -238.117 819.168 Q -237.628 818.731 -237.656 818.776 Q -237.685 818.822 -237.681 818.799 Q -237.678 818.776 -237.122 818.470 Q -236.566 818.164 -236.731 818.270 Q -236.896 818.376 -236.585 818.165 Q -236.275 817.954 -235.696 817.501 Q -235.116 817.048 -235.143 817.086 Q -235.169 817.123 -235.101 817.061 Q -235.033 816.998 -235.058 817.022 Q -235.083 817.046 -234.638 816.714 Q -234.192 816.382 -233.117 815.883 Q -232.041 815.385 -231.281 815.104 Q -230.520 814.822 -230.101 814.851 Q -229.681 814.880 -229.632 814.868 Q -229.582 814.855 -229.599 814.857 Q -229.616 814.860 -229.299 814.865 Q -228.982 814.871 -228.510 814.861 Q -228.038 814.851 -227.651 814.830 Q -227.264 814.808 -226.829 814.812 Q -226.394 814.816 -226.448 814.815 Q -226.503 814.814 -226.339 814.834 Q -226.176 814.853 -226.189 814.823 Q -226.203 814.793 -225.389 814.827 Q -224.574 814.862 -224.298 814.880 Q -224.022 814.897 -224.065 814.889 Q -224.109 814.881 -224.055 814.908 Q -224.002 814.935 -223.677 815.039 Q -223.352 815.142 -222.782 815.236 Q -222.212 815.330 -222.261 815.310 Q -222.310 815.289 -222.243 815.296 Q -222.175 815.302 -221.853 815.300 Q -221.532 815.298 -221.505 815.298 Q -221.479 815.299 -221.420 815.297 Q -221.361 815.294 -221.034 815.296 Q -220.707 815.298 -220.696 815.284 Q -220.685 815.271 -220.632 815.275 Q -220.579 815.278 -220.698 815.358 Q -220.816 815.437 -219.531 814.729 L -219.531 814.701 Q -219.032 814.692 -219.126 814.729 Q -218.797 815.112 -218.778 815.081 Q -217.890 815.596 -218.179 815.432 Q -218.468 815.268 -217.893 815.556 Q -217.319 815.845 -217.411 815.726 Q -216.344 815.953 -216.573 815.915 Q -216.802 815.877 -216.518 815.876 Q -216.234 815.875 -215.860 815.991 Q -215.487 816.108 -215.799 816.052 Q -216.111 815.996 -214.026 816.125 Q -214.008 815.979 -213.896 816.435 Q -213.784 816.891 -213.360 818.078 Q -212.936 819.265 -212.716 819.466 Q -212.495 819.667 -212.223 819.912 Q -211.952 820.157 -211.872 820.219 Q -211.792 820.280 -211.855 820.274 Q -211.918 820.267 -211.764 820.257 Q -211.610 820.248 -211.109 821.070 Q -210.608 821.893 -210.568 822.473 Q -210.528 823.052 -210.502 823.381 Q -210.477 823.710 -210.515 823.704 Q -210.554 823.697 -210.384 824.011 Q -210.214 824.325 -209.894 826.574 Q -209.574 828.822 -209.588 831.285 Q -209.602 833.747 -209.643 835.301 Q -209.684 836.855 -210.082 839.068 Q -210.480 841.282 -210.988 842.721 Q -211.495 844.161 -212.562 846.319 Q -213.628 848.478 -215.127 850.439 Q -215.780 851.226 -213.435 847.062 Q -211.090 842.897 -209.994 840.604 Q -208.898 838.311 -208.547 837.609 Q -208.197 836.908 -207.668 834.520 Q -207.139 832.132 -206.788 830.548 Q -206.437 828.964 -206.359 827.935 Q -206.282 826.906 -206.228 825.892 Q -206.174 824.877 -206.194 823.576 Q -206.215 822.275 -206.529 821.514 Q -206.844 820.753 -206.928 820.498 Q -207.012 820.243 -207.004 820.278 Q -206.995 820.313 -207.040 820.216 Q -207.084 820.119 -207.791 818.706 Q -208.499 817.293 -208.945 816.385 Q -209.392 815.477 -209.903 814.784 Q -210.415 814.090 -210.760 813.532 Q -211.106 812.975 -211.089 813.027 Q -211.071 813.080 -211.142 812.747 Q -211.214 812.414 -211.756 811.339 Q -212.299 810.264 -212.629 809.903 Q -212.958 809.543 -213.118 809.226 Q -213.278 808.909 -213.319 808.843 Q -213.361 808.777 -213.112 809.014 Q -212.863 809.252 -217.380 803.206 Q -216.271 803.233 -216.525 803.258 Q -216.330 803.271 -215.041 803.887 Q -213.752 804.503 -211.833 805.648 Q -209.914 806.793 -208.985 807.294 Q -208.056 807.795 -207.722 808.094 Q -207.388 808.392 -207.161 808.762 Q -206.934 809.131 -206.960 809.093 Q -206.985 809.055 -206.969 809.076 Q -206.953 809.097 -206.820 809.288 Q -206.686 809.479 -206.410 809.828 Q -206.135 810.176 -206.231 810.055 Q -206.326 809.935 -206.394 809.941 Q -206.461 809.946 -205.394 810.458 Q -205.117 809.681 -205.793 808.296 Q -206.469 806.911 -207.853 806.173 Q -209.236 805.435 -210.844 804.686 Q -212.453 803.938 -213.262 803.446 Q -214.072 802.954 -214.555 802.704 Q -215.038 802.455 -214.956 802.506 Q -214.874 802.557 -215.197 802.388 Q -215.519 802.219 -216.149 802.022 Q -216.779 801.825 -217.105 801.718 Q -217.432 801.611 -218.047 801.363 Q -218.662 801.115 -218.524 801.187 Q -218.387 801.259 -218.653 801.083 Q -218.919 800.907 -218.959 800.883 Q -218.999 800.860 -219.135 800.800 Q -219.271 800.740 -219.112 800.786 Q -218.953 800.832 -219.439 800.601 Q -219.925 800.370 -220.729 800.282 Q -221.532 800.194 -221.443 800.187 Q -221.354 800.180 -221.679 800.041 Q -222.003 799.902 -222.752 799.686 Q -223.502 799.471 -223.396 799.537 Q -223.291 799.603 -223.393 799.585 Q -223.496 799.567 -224.213 799.525 Q -224.931 799.484 -226.296 799.780 Q -227.661 800.077 -228.540 800.447 Q -229.419 800.818 -229.630 800.864 Q -229.841 800.909 -230.144 800.978 Q -230.447 801.047 -230.561 801.069 Q -230.674 801.092 -230.577 801.083 Q -230.480 801.074 -232.380 801.193 Q -234.280 801.312 -235.555 801.386 Q -236.831 801.460 -237.382 801.438 Q -237.933 801.416 -237.899 801.415 Q -237.865 801.415 -237.934 801.374 Q -238.003 801.333 -238.188 801.397 Q -238.373 801.462 -238.989 801.237 Q -239.606 801.011 -239.830 800.484 Q -240.055 799.956 -240.043 799.991 Q -240.030 800.026 -240.050 799.972 Q -240.071 799.918 -240.047 800.054 Q -240.023 800.190 -240.146 798.814 Q -240.270 797.438 -240.503 796.348 Q -240.735 795.258 -240.715 794.820 Q -240.695 794.383 -240.734 793.996 Q -240.773 793.609 -240.772 793.561 Q -240.772 793.513 -240.737 793.613 Q -240.701 793.713 -240.927 792.716 Q -241.152 791.719 -241.323 790.642 Q -241.494 789.565 -241.642 788.796 Q -241.790 788.027 -241.891 787.680 Q -241.992 787.333 -242.110 787.058 Q -242.227 786.784 -242.323 786.519 Q -242.418 786.255 -242.405 786.285 Q -242.393 786.316 -242.460 786.141 Q -242.528 785.967 -242.588 785.870 Q -242.648 785.773 -242.820 785.328 Q -242.992 784.884 -243.136 784.424 Q -243.279 783.964 -243.402 783.571 Q -243.525 783.178 -243.603 782.872 Q -243.680 782.566 -243.726 782.363 Q -243.773 782.160 -243.733 782.285 Q -243.694 782.410 -243.815 781.940 Q -243.936 781.470 -243.935 781.486 Q -243.934 781.503 -243.922 781.504 Q -243.910 781.506 -243.972 781.305 Q -244.033 781.105 -244.107 780.938 Q -244.181 780.772 -244.319 780.493 Q -244.457 780.214 -244.646 779.837 Q -244.835 779.460 -244.742 779.580 Q -244.872 779.367 -245.199 778.913 Q -245.526 778.460 -245.514 778.450 Q -245.874 778.127 -245.844 778.184 Q -246.127 778.081 -246.127 778.072 Q -246.127 778.063 -246.154 777.979 Q -246.182 777.894 -246.118 778.041 Q -246.053 778.188 -246.112 778.105 Q -246.171 778.023 -246.354 777.704 Q -246.538 777.384 -246.744 777.015 Q -246.951 776.645 -246.970 776.651 Q -247.354 776.182 -247.293 776.248 Q -247.587 775.922 -247.701 775.496 Q -247.814 775.071 -248.281 774.060 Q -248.749 773.050 -248.951 772.754 Q -249.154 772.459 -249.259 772.189 Q -249.363 771.919 -249.337 771.994 Q -249.310 772.069 -249.314 772.032 Q -249.317 771.996 -249.557 771.506 Q -249.796 771.016 -249.940 770.759 Q -250.085 770.501 -250.212 770.265 Q -250.339 770.029 -250.378 769.904 Q -250.417 769.779 -250.521 769.505 Q -250.625 769.231 -250.638 769.196 Q -250.651 769.162 -250.650 769.184 Q -250.648 769.206 -250.619 769.135 Q -250.590 769.064 -251.119 768.057 Q -251.648 767.050 -252.021 766.397 Q -252.393 765.745 -252.498 765.532 Q -252.603 765.319 -252.573 765.385 Q -252.544 765.451 -252.767 765.059 Q -252.990 764.667 -253.539 763.834 Q -254.088 763.001 -254.385 762.603 Q -254.683 762.205 -254.656 762.229 Q -254.630 762.252 -254.626 762.265 Q -254.621 762.278 -254.656 762.215 Q -254.690 762.152 -254.893 761.825 Q -255.095 761.499 -255.269 761.226 Q -255.443 760.952 -255.440 761.003 Q -255.437 761.053 -255.329 761.115 Q -255.222 761.175 -256.880 759.826 Q -256.750 760.224 -256.637 760.437 Q -256.524 760.651 -256.522 760.662 Q -256.520 760.673 -256.533 760.618 Q -256.546 760.562 -255.729 762.221 Q -254.912 763.880 -253.785 765.886 Q -252.657 767.891 -252.099 769.013 Q -251.541 770.135 -251.516 770.355 Q -251.491 770.575 -251.396 771.709 Q -251.301 772.844 -251.268 774.605 Q -251.236 776.365 -251.192 777.055 Q -251.148 777.744 -251.167 778.817 Q -251.187 779.889 -251.428 780.979 Q -251.669 782.070 -251.709 782.758 Q -251.749 783.446 -251.809 784.323 Q -251.870 785.200 -252.319 786.260 Q -252.768 787.320 -253.171 788.549 Q -253.574 789.778 -254.054 791.277 Q -254.534 792.775 -254.763 793.336 Q -254.991 793.897 -255.294 794.351 Q -255.598 794.805 -256.023 795.617 Q -256.449 796.429 -257.908 799.240 Q -259.367 802.050 -260.658 803.781 Q -261.948 805.512 -262.491 806.445 Q -263.033 807.378 -263.046 807.752 Q -263.059 808.126 -263.068 808.095 Q -263.076 808.064 -263.070 808.240 Q -263.065 808.415 -263.081 808.212 Q -263.097 808.009 -263.033 808.610 Q -262.970 809.212 -263.284 810.676 Q -263.284 810.648 -263.284 810.515 Q -263.259 810.515 -263.233 810.515 Q -263.224 810.627 -263.198 810.489 Q -263.172 810.351 -263.300 811.265 Q -263.428 812.178 -263.548 812.511 Q -263.668 812.844 -263.890 812.830 Q -264.111 812.815 -263.916 812.793 Q -263.722 812.771 -264.389 813.026 Q -265.057 813.281 -265.976 813.540 Q -266.895 813.799 -267.716 814.195 Q -268.538 814.591 -269.073 814.982 Q -269.607 815.373 -269.725 815.432 Q -269.843 815.491 -269.706 815.459 Q -269.569 815.427 -270.253 815.893 Q -270.936 816.359 -271.399 816.470 Q -271.861 816.582 -272.258 816.613 Q -272.654 816.643 -272.612 816.644 Q -272.570 816.645 -272.964 816.627 Q -273.358 816.609 -273.599 816.580 "></path>
    <path id="STROKE_e248b2c1-1d57-4e98-90a6-1a6194e08df8" opacity="1.000" fill="none" stroke="#dbf8e3" stroke-width="23.095" stroke-opacity="1.000" stroke-linecap="round" stroke-linejoin="round" d="M -222.062 791.597 Q -222.512 792.016 -222.486 791.943 Q -222.626 791.967 -223.163 792.185 Q -222.938 792.328 -223.065 791.740 Q -223.193 791.152 -223.636 790.735 Q -224.080 790.318 -224.003 790.404 Q -223.926 790.489 -223.995 790.399 Q -224.065 790.308 -224.016 790.359 Q -223.968 790.411 -224.029 790.343 Q -224.090 790.275 -224.976 789.233 Q -225.863 788.191 -226.136 788.004 Q -226.409 787.817 -226.884 786.311 Q -227.359 784.806 -227.499 783.269 Q -227.638 781.733 -227.898 781.047 Q -228.158 780.360 -228.394 779.638 Q -228.630 778.916 -229.372 778.097 Q -230.114 777.278 -230.562 776.870 Q -231.011 776.461 -231.183 776.263 Q -231.356 776.066 -231.299 776.080 Q -231.243 776.094 -231.370 776.090 Q -231.498 776.086 -232.208 774.781 Q -232.918 773.475 -232.836 771.626 Q -232.753 769.776 -233.073 767.515 Q -233.271 767.567 -233.219 767.443 Q -233.166 767.318 -233.243 767.678 Q -233.321 768.037 -233.392 768.493 Q -233.463 768.948 -233.488 769.145 Q -233.514 769.341 -233.521 769.388 Q -233.528 769.434 -233.507 769.393 Q -233.486 769.352 -233.769 770.904 Q -233.801 770.904 -233.833 770.904 Q -233.765 770.776 -233.867 771.247 Q -233.969 771.718 -233.778 772.163 Q -233.588 772.608 -233.254 773.073 Q -232.920 773.538 -232.926 773.573 Q -232.931 773.608 -232.950 773.597 Q -232.970 773.586 -232.626 774.450 Q -232.283 775.314 -231.678 776.324 Q -231.073 777.335 -230.706 777.856 Q -230.338 778.378 -230.090 778.777 Q -229.842 779.177 -229.786 779.255 Q -229.730 779.334 -229.838 779.183 Q -229.945 779.031 -229.722 779.447 Q -229.499 779.863 -229.242 780.255 Q -228.985 780.647 -228.992 780.620 Q -228.999 780.594 -228.967 780.625 Q -228.935 780.656 -229.003 780.595 Q -229.071 780.534 -228.958 780.652 Q -228.845 780.770 -228.425 781.195 Q -228.005 781.620 -228.019 781.609 Q -228.033 781.598 -228.020 781.592 Q -228.007 781.587 -228.041 781.555 Q -228.074 781.523 -227.995 781.656 Q -227.915 781.788 -227.868 781.851 Q -227.822 781.913 -227.429 782.562 Q -227.037 783.211 -227.042 783.247 Q -227.048 783.284 -226.957 783.401 Q -226.866 783.518 -226.985 783.360 Q -227.104 783.202 -226.014 785.439 Q -224.923 787.676 -223.763 789.304 Q -222.603 790.931 -221.791 791.628 Q -220.979 792.324 -220.357 792.569 Q -219.735 792.814 -219.440 792.868 Q -219.145 792.923 -219.223 792.917 Q -219.302 792.912 -219.226 792.913 Q -219.150 792.913 -219.255 792.902 Q -219.359 792.891 -219.239 792.921 Q -219.119 792.951 -218.778 793.017 Q -218.436 793.083 -218.279 793.123 Q -218.122 793.162 -217.716 793.317 Q -217.311 793.472 -217.395 793.438 Q -217.479 793.404 -217.066 793.542 Q -216.653 793.680 -216.733 793.646 Q -216.813 793.611 -216.609 793.681 Q -216.405 793.751 -215.382 794.036 Q -214.358 794.321 -213.862 794.420 Q -213.366 794.519 -212.997 794.519 Q -212.627 794.519 -212.570 794.547 Q -212.512 794.576 -212.389 794.580 Q -212.267 794.584 -212.452 794.579 Q -212.637 794.575 -212.128 794.640 "></path>
    <path id="STROKE_02c4c3f7-cd8c-4cbd-b174-3e092bc5e71f" opacity="1.000" fill="none" stroke="#dbf8e3" stroke-width="27.144" stroke-opacity="1.000" stroke-linecap="round" stroke-linejoin="round" d="M -192.350 804.622 Q -191.573 805.744 -191.269 806.279 Q -190.966 806.815 -190.624 807.259 Q -190.282 807.703 -190.275 807.697 Q -190.268 807.690 -190.199 807.762 Q -190.130 807.834 -190.223 807.798 Q -190.315 807.762 -189.151 808.809 Q -187.988 809.856 -186.139 811.711 Q -184.290 813.566 -183.554 814.493 Q -182.818 815.420 -182.592 815.837 Q -182.367 816.255 -182.027 816.860 Q -181.688 817.464 -181.803 817.276 Q -181.917 817.088 -181.816 817.252 Q -181.714 817.416 -181.578 817.622 Q -181.443 817.828 -181.511 817.705 Q -181.579 817.582 -181.556 817.628 Q -181.533 817.674 -181.544 817.642 Q -181.554 817.610 -181.521 817.680 Q -181.488 817.749 -181.223 818.314 Q -180.958 818.878 -180.951 818.884 Q -180.943 818.889 -180.762 819.221 Q -180.580 819.553 -180.534 819.690 Q -180.488 819.828 -180.380 820.050 Q -180.272 820.272 -180.257 820.284 Q -180.242 820.296 -180.209 820.336 Q -180.176 820.377 -180.175 820.375 Q -180.173 820.373 -179.758 820.753 Q -179.342 821.132 -179.360 821.127 Q -179.011 821.514 -178.939 821.599 Q -178.867 821.684 -178.930 821.611 Q -178.550 822.080 -178.607 821.986 Q -178.297 822.623 -178.249 822.730 Q -178.200 822.838 -178.259 822.741 Q -178.206 822.791 -178.123 823.209 Q -178.040 823.627 -178.069 823.513 Q -178.099 823.399 -178.084 823.421 Q -178.069 823.443 -178.077 823.452 Q -178.085 823.461 -178.080 823.486 Q -178.076 823.510 -178.054 823.624 Q -178.032 823.738 -177.970 824.028 Q -177.909 824.318 -177.860 824.604 Q -177.811 824.890 -177.599 825.508 Q -177.386 826.125 -177.362 826.171 Q -177.338 826.216 -177.424 826.016 Q -177.357 826.307 -177.390 826.144 Q -177.423 825.981 -177.420 825.998 Q -177.416 826.015 -177.419 825.993 Q -177.421 825.972 -177.413 826.004 Q -177.405 826.035 -177.398 826.055 Q -177.391 826.074 -177.374 826.162 Q -177.357 826.250 -177.330 826.365 Q -177.303 826.480 -177.244 826.804 Q -177.184 827.127 -177.099 827.551 Q -177.013 827.974 -177.047 827.835 Q -177.080 827.697 -177.044 827.804 Q -177.008 827.911 -176.967 828.189 Q -176.926 828.468 -176.913 828.480 Q -176.901 828.492 -176.887 828.584 Q -176.872 828.675 -176.886 828.585 Q -176.899 828.494 -176.836 828.881 Q -176.773 829.268 -176.777 829.216 Q -176.782 829.164 -176.776 829.200 Q -176.770 829.236 -176.792 829.115 Q -176.815 828.993 -176.733 829.224 Q -176.652 829.454 -176.649 829.501 Q -176.646 829.549 -176.508 830.039 Q -176.370 830.530 -176.330 830.779 Q -176.291 831.029 -176.322 830.961 Q -176.322 831.796 -176.322 831.855 Q -176.322 831.914 -176.322 831.849 Q -176.167 832.593 -176.158 832.602 Q -176.149 832.611 -176.158 832.575 Q -175.847 833.270 -175.917 833.059 Q -175.697 833.403 -175.394 834.189 Q -175.091 834.976 -174.717 835.699 Q -174.344 836.421 -174.030 836.957 Q -173.716 837.494 -173.740 837.458 Q -173.764 837.423 -173.742 837.435 Q -173.719 837.447 -173.639 837.653 Q -173.559 837.859 -173.526 837.947 Q -173.494 838.034 -173.318 838.479 Q -173.143 838.924 -173.120 839.008 Q -173.097 839.093 -173.077 839.141 Q -173.057 839.189 -173.077 839.149 Q -173.097 839.109 -173.048 839.384 Q -172.998 839.658 -172.807 840.168 Q -172.615 840.677 -172.433 841.184 Q -172.250 841.690 -172.269 841.623 Q -172.289 841.556 -172.239 841.675 Q -172.189 841.793 -171.984 842.140 Q -171.778 842.486 -171.578 842.829 Q -171.378 843.172 -171.300 843.338 Q -171.221 843.504 -171.134 843.669 Q -171.046 843.834 -171.096 843.719 Q -171.147 843.604 -171.153 843.594 Q -171.159 843.585 -171.112 843.699 Q -171.065 843.812 -171.069 843.796 Q -171.073 843.781 -171.051 843.794 Q -171.028 843.807 -170.830 844.467 Q -170.631 845.126 -170.679 844.624 Q -170.728 844.121 -170.330 847.943 Q -169.871 848.169 -171.598 848.073 Q -173.325 847.977 -174.314 847.731 Q -175.303 847.484 -175.726 847.521 Q -176.150 847.558 -176.575 847.541 Q -176.999 847.523 -177.422 847.581 Q -177.845 847.640 -178.587 847.778 Q -179.329 847.916 -179.712 847.973 Q -180.095 848.031 -180.721 848.219 Q -181.347 848.406 -181.753 848.610 Q -182.159 848.814 -182.278 848.866 Q -182.397 848.919 -182.383 848.927 Q -182.370 848.935 -183.028 849.237 Q -183.687 849.539 -183.978 849.592 Q -184.268 849.644 -184.379 849.670 Q -184.490 849.696 -184.345 849.673 Q -184.200 849.650 -184.650 849.676 Q -185.100 849.702 -185.488 849.825 Q -185.876 849.948 -186.306 850.179 Q -186.737 850.410 -187.131 850.635 Q -187.526 850.859 -187.938 851.123 Q -188.350 851.387 -188.725 851.624 Q -189.101 851.860 -189.173 851.920 Q -189.246 851.981 -189.251 851.983 Q -189.256 851.986 -189.309 852.034 Q -189.361 852.082 -189.376 852.126 Q -189.391 852.171 -189.675 852.299 Q -189.958 852.426 -190.745 853.516 Q -191.532 854.605 -191.879 855.221 Q -192.226 855.837 -192.255 855.911 Q -192.283 855.986 -192.336 856.130 Q -192.388 856.274 -192.380 856.272 Q -192.372 856.271 -192.525 857.096 Q -192.678 857.920 -193.185 859.048 Q -193.693 860.176 -194.116 860.795 Q -194.540 861.414 -194.649 861.672 Q -194.757 861.929 -194.887 862.121 Q -195.016 862.312 -195.023 862.342 Q -195.030 862.373 -195.017 862.315 Q -195.004 862.258 -195.255 862.725 Q -195.506 863.192 -195.533 863.269 Q -195.560 863.346 -195.626 863.549 Q -195.692 863.753 -195.764 863.981 Q -195.837 864.210 -195.837 864.249 Q -195.837 864.287 -195.814 864.174 Q -195.790 864.061 -195.857 864.420 Q -195.924 864.779 -195.956 864.913 Q -195.988 865.046 -196.119 865.675 Q -196.250 866.304 -196.283 866.464 Q -196.315 866.624 -196.319 866.619 Q -196.319 867.618 -196.319 867.446 Q -196.319 867.275 -196.311 868.013 Q -196.303 868.751 -196.329 868.279 Q -196.355 867.808 -196.331 870.330 Q -196.306 872.852 -196.222 874.152 Q -196.137 875.452 -196.149 875.859 Q -196.161 876.265 -196.157 876.777 Q -196.152 877.289 -196.154 877.201 Q -196.156 877.113 -196.155 877.034 Q -196.154 876.956 -196.155 877.634 Q -196.155 876.933 -196.155 877.017 Q -196.155 876.139 -196.155 876.244 Q -196.155 876.135 -196.104 875.755 Q -196.104 876.585 -196.104 876.320 Q -196.104 877.160 -196.104 877.220 Q -196.104 877.280 -196.104 877.155 Q -196.104 878.400 -196.104 877.933 Q -196.190 879.183 -196.180 878.873 Q -196.343 879.696 -196.345 879.628 Q -196.454 880.473 -196.446 880.401 Q -196.577 881.495 -196.550 881.326 Q -196.523 881.156 -196.527 881.259 Q -196.530 881.361 -196.528 881.671 Q -196.525 881.981 -196.600 882.355 Q -196.675 882.729 -196.649 882.659 Q -196.623 882.588 -196.916 883.238 Q -197.210 883.888 -197.145 883.725 Q -197.081 883.562 -197.288 883.996 Q -197.494 884.430 -197.642 884.614 Q -197.790 884.799 -197.993 885.652 Q -198.195 886.506 -198.258 886.953 Q -198.320 887.400 -198.439 888.003 Q -198.558 888.606 -198.544 888.540 Q -198.530 888.473 -198.522 888.465 Q -198.522 889.303 -198.522 889.372 Q -198.522 889.441 -198.522 889.272 Q -198.522 890.415 -198.522 890.216 Q -198.672 891.194 -198.423 891.859 Q -198.174 892.523 -198.041 892.737 "></path>
    <path id="STROKE_d72aa7c6-4123-4166-9961-6a231c168684" opacity="1.000" fill="none" stroke="#dbf8e3" stroke-width="23.663" stroke-opacity="1.000" stroke-linecap="round" stroke-linejoin="round" d="M -211.469 849.746 Q -212.049 849.746 -211.925 849.746 Q -212.357 850.730 -212.197 850.415 Q -212.201 850.326 -212.539 851.017 Q -212.876 851.708 -213.115 852.232 Q -213.353 852.757 -213.321 853.319 Q -213.290 853.880 -213.260 853.824 Q -213.230 853.767 -213.350 853.630 Q -213.470 853.494 -213.148 854.825 Q -212.826 856.156 -212.373 857.191 Q -211.920 858.226 -211.530 858.865 Q -211.140 859.504 -210.632 860.434 Q -210.125 861.363 -209.946 861.901 Q -209.767 862.439 -209.607 862.948 Q -209.447 863.456 -209.447 863.800 Q -209.446 864.143 -209.362 864.482 Q -209.279 864.820 -209.178 865.101 Q -209.078 865.382 -209.029 865.937 Q -208.981 866.491 -208.995 867.022 Q -209.008 867.553 -208.996 867.548 Q -208.985 867.544 -209.027 867.382 Q -209.069 867.221 -208.837 872.641 Q -208.837 872.012 -208.837 872.214 Q -208.837 871.437 -208.837 871.380 Q -208.837 871.323 -208.837 871.403 Q -208.837 869.982 -208.837 870.382 Q -208.713 870.344 -208.970 868.700 Q -209.227 867.057 -209.704 865.841 Q -210.180 864.625 -210.315 864.429 Q -210.450 864.233 -210.412 864.315 Q -210.375 864.396 -210.575 863.939 Q -210.776 863.481 -211.335 862.525 Q -211.894 861.570 -212.200 861.140 Q -212.506 860.711 -212.882 860.323 Q -213.257 859.934 -213.408 859.676 Q -213.558 859.417 -213.950 859.200 Q -214.256 858.768 -213.680 860.116 Q -213.103 861.464 -212.957 863.985 Q -212.811 866.507 -212.837 867.603 Q -212.864 868.700 -212.775 869.394 Q -212.687 870.088 -212.753 871.237 Q -212.819 872.386 -212.926 873.160 Q -213.032 873.933 -213.055 873.922 Q -213.078 873.910 -213.059 873.899 Q -213.041 873.887 -213.291 874.239 Q -213.540 874.591 -213.570 874.464 Q -214.433 874.375 -214.209 874.279 Q -214.392 873.970 -214.570 873.669 Q -214.747 873.368 -214.912 873.126 "></path>
    <path id="STROKE_d32acec1-f683-40ca-9976-5e1b8e89c418" opacity="1.000" fill="none" stroke="#dbf8e3" stroke-width="19.254" stroke-opacity="1.000" stroke-linecap="round" stroke-linejoin="round" d="M -178.745 882.209 Q -178.891 882.307 -178.354 880.354 Q -179.347 880.188 -179.039 880.229 Q -178.522 880.376 -180.011 879.957 Q -179.856 879.894 -179.403 879.604 Q -178.950 879.315 -179.026 879.381 Q -179.103 879.446 -178.674 879.185 Q -178.245 878.923 -176.661 877.631 Q -175.077 876.339 -174.231 875.710 Q -173.386 875.081 -173.101 874.788 Q -172.816 874.495 -171.921 874.440 Q -171.026 874.385 -170.659 874.574 Q -170.293 874.762 -169.839 874.893 Q -169.385 875.025 -169.346 874.978 Q -169.057 875.201 -169.047 875.194 Q -168.654 875.234 -168.736 875.220 Q -167.435 875.250 -167.879 875.267 Q -167.166 875.517 -167.264 875.487 Q -167.065 875.609 -166.742 875.765 Q -166.419 875.921 -166.379 875.960 Q -166.339 876.000 -166.344 875.982 Q -166.348 875.964 -165.749 876.358 Q -165.149 876.751 -164.697 877.032 Q -164.246 877.313 -164.105 877.520 Q -163.965 877.726 -163.768 877.951 Q -163.571 878.176 -163.629 878.221 Q -163.687 878.267 -163.662 878.124 Q -163.637 877.982 -163.651 878.909 Q -164.625 879.030 -164.336 878.982 Q -164.410 878.982 -164.629 878.909 L -164.629 878.887 Q -164.606 878.887 -164.336 879.142 Q -164.065 879.396 -163.893 879.569 "></path>
    <path id="STROKE_77d6aab2-4923-4a10-b8ed-2c0e24683423" opacity="1.000" fill="none" stroke="#dbf8e3" stroke-width="23.025" stroke-opacity="1.000" stroke-linecap="round" stroke-linejoin="round" d="M -192.965 920.115 Q -192.965 920.141 -192.965 920.167 Q -192.691 920.596 -195.554 919.261 L -195.554 919.235 Q -195.175 919.566 -194.755 919.947 Q -194.335 920.329 -193.293 920.768 Q -192.251 921.208 -190.756 921.353 Q -189.262 921.499 -187.267 920.641 Q -185.272 919.784 -182.854 918.961 Q -180.436 918.138 -175.547 918.553 Q -175.245 918.599 -175.835 919.050 Q -176.426 919.501 -177.342 919.996 Q -178.258 920.491 -179.325 920.854 Q -180.392 921.218 -185.854 922.694 Q -191.317 924.171 -194.631 924.945 Q -197.945 925.719 -199.132 925.924 Q -200.318 926.129 -201.198 926.088 Q -202.078 926.046 -202.327 926.021 Q -202.577 925.995 -203.016 926.003 Q -203.455 926.010 -203.382 926.017 Q -203.309 926.023 -203.513 925.907 Q -203.716 925.790 -204.822 926.363 Q -205.929 926.936 -207.375 927.770 Q -208.822 928.604 -210.353 929.024 Q -211.885 929.444 -212.603 929.583 Q -213.322 929.722 -213.691 929.777 Q -214.060 929.833 -214.729 930.166 Q -215.398 930.499 -215.647 930.894 Q -215.896 931.288 -216.304 931.660 Q -216.712 932.032 -217.183 932.287 Q -217.653 932.542 -217.936 932.499 Q -218.218 932.456 -218.322 932.480 Q -217.681 931.724 -214.913 931.064 Q -212.145 930.404 -208.729 927.338 Q -205.314 924.271 -203.947 922.735 Q -202.581 921.199 -200.254 919.629 Q -197.927 918.059 -196.035 916.656 Q -194.144 915.253 -192.425 911.253 Q -193.362 910.800 -193.086 910.960 Q -193.276 910.915 -193.721 910.786 Q -194.165 910.657 -194.066 910.688 Q -193.968 910.720 -194.466 910.544 Q -194.965 910.368 -195.507 910.222 Q -196.049 910.076 -196.482 909.970 Q -196.916 909.864 -197.105 909.826 Q -197.294 909.788 -197.860 909.738 Q -198.427 909.687 -198.949 909.666 Q -199.472 909.645 -200.572 910.132 Q -201.672 910.620 -202.631 910.779 Q -203.590 910.938 -205.166 911.459 Q -206.742 911.980 -207.591 912.249 Q -208.440 912.519 -208.875 912.506 Q -209.310 912.494 -209.995 912.602 Q -210.681 912.710 -211.070 912.810 Q -211.459 912.910 -212.128 913.123 Q -212.798 913.336 -213.215 913.515 Q -213.631 913.694 -213.947 913.841 Q -214.263 913.988 -214.304 914.013 Q -214.344 914.037 -214.332 914.027 Q -214.320 914.018 -214.383 914.044 Q -214.446 914.070 -214.319 914.012 Q -214.191 913.954 -214.908 914.305 Q -215.626 914.657 -215.791 914.784 Q -215.957 914.911 -215.983 914.958 Q -216.009 915.004 -215.975 914.969 Q -215.941 914.934 -216.285 915.138 Q -216.629 915.341 -218.199 916.930 Q -219.769 918.518 -220.593 919.454 Q -221.416 920.390 -221.830 920.800 Q -222.244 921.211 -222.466 921.345 Q -222.689 921.479 -222.668 921.459 Q -222.647 921.438 -222.516 921.377 Q -222.385 921.317 -224.132 922.099 Q -224.070 922.095 -224.159 922.268 Q -224.247 922.440 -224.188 922.335 Q -224.129 922.231 -224.087 922.217 Q -224.045 922.203 -224.114 922.355 Q -224.183 922.507 -224.605 923.062 Q -225.028 923.618 -225.035 923.562 Q -225.266 923.867 -225.202 923.903 Q -225.472 924.819 -225.449 924.727 Q -225.427 924.635 -225.426 924.636 Q -225.773 925.051 -225.697 924.930 Q -225.700 924.937 -225.997 925.168 Q -226.294 925.400 -226.352 925.411 Q -226.409 925.422 -226.338 925.443 Q -226.267 925.464 -227.173 925.878 Q -228.079 926.292 -229.116 926.603 Q -230.153 926.914 -231.144 927.205 Q -232.134 927.495 -232.518 927.572 Q -232.902 927.650 -233.210 927.708 Q -233.518 927.767 -233.690 927.770 Q -233.862 927.773 -234.487 927.866 Q -235.112 927.958 -235.423 927.974 Q -235.733 927.989 -236.528 928.300 Q -237.322 928.610 -237.883 928.863 Q -238.444 929.116 -238.740 929.177 Q -239.036 929.237 -239.186 929.260 Q -239.336 929.283 -239.375 929.305 Q -239.414 929.327 -239.302 929.293 Q -239.191 929.260 -240.342 929.391 Q -241.494 929.521 -242.262 929.798 Q -243.030 930.074 -243.624 930.338 Q -244.218 930.601 -244.698 930.815 Q -245.178 931.028 -245.468 931.129 Q -245.759 931.230 -246.147 931.400 Q -246.535 931.570 -246.760 931.687 Q -246.984 931.804 -246.931 931.794 Q -246.877 931.784 -246.974 931.821 Q -247.070 931.858 -247.340 932.124 Q -247.610 932.391 -248.012 932.867 Q -248.415 933.343 -248.712 933.711 Q -249.009 934.079 -249.025 934.120 Q -249.041 934.160 -249.162 934.365 Q -249.283 934.571 -249.371 934.731 Q -249.460 934.891 -249.471 934.933 Q -249.482 934.975 -249.453 934.859 Q -249.424 934.743 -249.868 935.662 Q -250.312 936.580 -250.531 937.287 Q -250.750 937.994 -251.093 938.662 Q -251.437 939.331 -251.456 940.690 Q -251.475 942.049 -251.432 942.924 Q -251.389 943.799 -251.341 944.173 Q -251.293 944.547 -251.159 945.211 Q -251.025 945.875 -250.788 946.638 Q -250.552 947.402 -250.432 947.744 Q -250.311 948.087 -250.185 948.592 Q -250.059 949.096 -249.627 950.065 Q -249.195 951.035 -248.698 951.827 Q -248.201 952.620 -247.941 952.965 Q -247.681 953.311 -247.243 953.965 Q -246.805 954.618 -246.504 955.164 Q -246.203 955.709 -246.119 955.862 Q -246.035 956.015 -246.015 956.048 Q -245.996 956.080 -245.972 956.122 Q -245.947 956.165 -245.685 956.563 Q -245.422 956.961 -245.380 957.020 Q -245.339 957.078 -245.347 957.056 Q -245.355 957.034 -245.079 957.349 Q -244.802 957.665 -244.360 958.203 Q -243.919 958.741 -242.651 959.775 Q -241.382 960.810 -240.680 961.261 Q -239.979 961.712 -239.641 961.844 Q -239.303 961.976 -239.025 962.023 Q -238.746 962.069 -238.643 962.118 Q -238.540 962.167 -238.549 962.180 Q -238.558 962.192 -238.516 962.112 Q -238.474 962.033 -237.467 962.569 Q -236.460 963.105 -235.968 963.395 Q -235.477 963.684 -235.184 963.994 Q -234.891 964.304 -234.875 964.304 Q -234.858 964.303 -234.929 964.298 Q -235.000 964.292 -234.247 964.688 Q -233.494 965.083 -231.563 966.589 Q -229.632 968.095 -229.068 968.435 "></path>
    <path id="STROKE_07f3452d-abef-4f51-b120-503149af4db7" opacity="1.000" fill="none" stroke="#dbf8e3" stroke-width="22.126" stroke-opacity="1.000" stroke-linecap="round" stroke-linejoin="round" d="M -168.165 948.026 Q -167.248 947.876 -170.440 947.166 Q -170.714 947.748 -170.542 945.081 Q -170.371 942.414 -170.021 940.708 Q -169.671 939.003 -169.389 937.937 Q -169.107 936.871 -168.502 936.358 Q -167.897 935.845 -167.057 934.129 Q -166.218 932.412 -166.083 931.680 Q -165.948 930.949 -165.329 930.337 Q -164.710 929.726 -164.738 929.681 Q -164.766 929.637 -164.680 929.534 Q -164.593 929.431 -164.147 928.821 Q -163.701 928.210 -163.843 928.211 Q -163.985 928.213 -162.846 927.053 Q -161.708 925.893 -160.940 925.380 Q -160.172 924.868 -159.868 924.434 Q -159.563 924.001 -159.298 923.436 Q -159.033 922.871 -159.037 922.883 Q -159.042 922.895 -159.049 922.846 Q -159.055 922.797 -158.878 922.507 Q -158.701 922.217 -157.672 919.787 Q -158.192 919.581 -158.956 920.844 Q -159.719 922.107 -160.324 923.123 Q -160.930 924.139 -161.037 924.290 Q -161.145 924.441 -161.892 925.702 Q -162.639 926.962 -166.113 932.191 Q -169.587 937.419 -172.311 941.066 Q -175.035 944.712 -176.554 946.264 Q -178.073 947.815 -178.621 948.562 Q -179.170 949.309 -179.536 949.717 Q -179.903 950.126 -180.387 950.771 Q -180.870 951.416 -181.381 951.947 Q -181.892 952.478 -182.478 953.048 Q -183.063 953.619 -183.569 954.079 Q -184.074 954.540 -184.612 955.026 Q -185.149 955.512 -185.772 956.095 Q -186.395 956.677 -186.845 957.073 Q -187.295 957.469 -187.603 957.780 Q -187.911 958.092 -187.630 957.786 Q -187.348 957.481 -189.105 959.120 Q -190.862 960.759 -191.943 962.011 Q -193.024 963.264 -193.546 963.963 Q -194.067 964.663 -194.281 964.932 Q -194.495 965.201 -194.906 965.927 Q -195.317 966.654 -195.118 966.126 Q -194.919 965.598 -195.537 967.182 "></path>
    <path id="STROKE_fba159d2-54bd-4d67-8ced-b0ce8d5b98fa" opacity="1.000" fill="none" stroke="#dbf8e3" stroke-width="25.543" stroke-opacity="1.000" stroke-linecap="round" stroke-linejoin="round" d="M -196.115 957.165 Q -195.390 955.817 -194.779 954.743 Q -194.167 953.669 -193.785 952.872 Q -193.404 952.076 -193.056 951.404 Q -192.708 950.731 -192.778 950.929 Q -192.847 951.128 -193.009 951.231 Q -193.172 951.334 -191.666 949.103 Q -190.161 946.872 -189.374 945.677 Q -188.586 944.483 -187.951 943.812 Q -187.316 943.142 -187.349 943.177 Q -187.383 943.213 -187.411 943.240 Q -187.439 943.268 -186.555 942.562 Q -185.670 941.856 -186.192 942.357 Q -186.714 942.858 -185.029 941.297 Q -183.345 939.736 -182.489 938.786 Q -181.632 937.836 -180.831 936.807 Q -180.029 935.779 -177.371 935.817 Q -177.371 935.778 -177.371 935.738 Q -177.336 935.738 -177.300 935.738 Q -177.300 935.705 -177.300 935.593 Q -177.256 935.593 -177.212 935.513 Q -176.262 934.740 -176.113 934.402 Q -175.965 934.063 -175.947 934.068 Q -175.929 934.073 -175.992 934.179 Q -176.056 934.286 -175.272 933.140 Q -174.488 931.995 -174.232 931.545 "></path>
    <path id="STROKE_17f5cb06-4751-45bb-a518-2592fe132624" opacity="1.000" fill="none" stroke="#dbf8e3" stroke-width="25.089" stroke-opacity="1.000" stroke-linecap="round" stroke-linejoin="round" d="M -149.136 903.769 Q -149.136 903.769 -150.007 903.769 Q -150.877 903.769 -150.256 903.769 Q -151.899 904.385 -151.350 904.212 Q -151.904 904.672 -151.576 904.406 Q -151.247 904.141 -157.742 910.276 Q -157.219 909.236 -157.004 909.178 Q -156.789 909.120 -156.452 908.382 Q -156.115 907.645 -155.939 907.122 Q -155.763 906.600 -155.670 906.431 Q -155.577 906.263 -155.597 906.296 Q -155.616 906.329 -155.287 905.551 Q -154.957 904.772 -154.938 904.814 Q -154.168 903.303 -154.418 903.802 Q -154.194 903.455 -153.474 902.290 Q -152.754 901.125 -152.357 900.504 Q -151.961 899.883 -151.593 899.310 Q -151.225 898.736 -151.293 898.901 Q -151.361 899.066 -151.440 898.897 Q -151.520 898.728 -149.030 896.478 Q -146.540 894.227 -145.376 892.970 Q -144.213 891.713 -143.571 891.465 Q -142.929 891.217 -142.377 890.947 Q -141.826 890.676 -141.514 890.509 Q -141.202 890.343 -141.106 890.315 Q -141.010 890.287 -140.868 890.296 Q -140.725 890.306 -140.212 889.880 Q -139.700 889.454 -137.590 889.363 Q -135.481 889.272 -135.549 889.305 Q -135.618 889.337 -134.128 889.598 Q -132.638 889.859 -131.731 889.854 Q -130.823 889.849 -130.371 890.140 Q -129.919 890.430 -129.893 890.412 Q -129.866 890.394 -130.021 890.388 Q -130.177 890.382 -129.367 890.436 Q -129.607 890.098 -129.138 890.404 Q -128.670 890.710 -132.100 886.164 Q -132.834 886.896 -133.258 886.818 Q -133.682 886.740 -135.428 887.246 Q -137.174 887.752 -137.950 888.131 Q -138.725 888.510 -139.462 888.599 Q -140.198 888.687 -140.135 888.700 Q -140.072 888.712 -140.748 888.771 Q -141.425 888.831 -141.289 888.710 Q -141.154 888.589 -142.237 888.815 Q -143.321 889.042 -143.944 889.508 Q -144.567 889.975 -144.941 890.189 Q -145.314 890.404 -145.423 890.474 Q -145.531 890.543 -145.555 890.537 Q -145.578 890.531 -145.478 890.483 Q -145.379 890.435 -146.228 890.847 Q -147.077 891.259 -146.962 891.225 Q -146.848 891.191 -147.450 891.449 Q -148.053 891.706 -148.106 891.720 Q -148.160 891.733 -148.340 891.887 Q -148.521 892.041 -148.832 892.061 Q -149.144 892.081 -150.430 893.403 Q -151.716 894.726 -152.252 895.358 Q -152.787 895.989 -153.132 896.556 Q -153.476 897.122 -153.522 897.222 Q -153.568 897.323 -153.604 897.374 Q -153.640 897.425 -153.910 897.987 Q -154.180 898.549 -154.406 899.037 Q -154.632 899.525 -154.819 899.922 Q -155.006 900.318 -154.959 900.216 Q -154.911 900.114 -154.959 900.215 Q -155.006 900.317 -154.953 900.209 Q -154.900 900.101 -154.899 900.104 Q -154.897 900.107 -155.306 900.959 Q -155.716 901.811 -155.651 901.701 Q -155.586 901.590 -155.811 902.314 Q -156.036 903.038 -156.013 902.930 Q -155.990 902.822 -155.954 902.726 Q -155.917 902.630 -157.143 906.467 Q -158.591 905.908 -158.086 906.051 Q -158.688 904.360 -158.466 904.926 Q -158.828 903.816 -159.030 902.949 Q -159.065 902.949 -159.100 902.949 Q -159.100 904.242 -159.100 903.842 Q -159.100 905.587 -159.100 905.039 Q -159.100 906.641 -159.100 906.090 Q -159.115 907.404 -159.136 906.990 Q -159.097 906.969 -159.116 907.007 Q -159.135 907.045 -159.201 907.086 Q -159.267 907.128 -159.152 907.042 Q -159.036 906.957 -159.303 907.233 Q -159.569 907.509 -160.005 907.973 Q -160.441 908.436 -160.437 908.322 Q -160.433 908.208 -160.350 908.250 Q -160.268 908.293 -160.741 908.266 Q -160.705 908.226 -159.493 907.476 Q -158.280 906.725 -157.831 906.242 "></path>
    <path id="STROKE_ef7f2325-afeb-494b-83bb-d789e37aa6b1" opacity="1.000" fill="none" stroke="#dbf8e3" stroke-width="22.953" stroke-opacity="1.000" stroke-linecap="round" stroke-linejoin="round" d="M -158.898 898.889 Q -158.898 898.913 -158.919 899.159 Q -159.907 899.159 -159.592 899.159 Q -160.686 899.470 -160.422 899.371 Q -160.159 899.272 -160.381 899.349 Q -160.604 899.426 -160.579 899.407 Q -160.554 899.389 -160.910 899.779 Q -161.267 900.169 -161.579 900.500 Q -161.891 900.831 -162.267 901.005 Q -162.644 901.179 -163.360 901.475 Q -164.076 901.772 -164.471 901.929 Q -164.866 902.086 -165.133 902.190 Q -165.400 902.293 -165.932 902.479 Q -166.465 902.665 -166.456 902.694 Q -167.098 903.016 -166.927 902.937 Q -167.131 903.072 -167.362 903.212 Q -167.594 903.351 -167.710 903.429 Q -167.825 903.506 -167.659 903.386 Q -167.492 903.266 -168.214 903.813 Q -168.936 904.360 -169.443 904.729 Q -169.950 905.098 -170.203 905.219 Q -170.456 905.340 -171.194 906.008 Q -171.932 906.677 -171.811 906.570 Q -171.689 906.463 -172.222 907.200 Q -172.754 907.936 -174.194 908.764 Q -174.387 908.916 -174.200 909.006 Q -174.013 909.096 -173.595 909.266 Q -173.177 909.436 -172.592 909.267 Q -172.007 909.097 -171.777 908.932 Q -171.547 908.767 -171.328 908.643 Q -171.109 908.519 -171.112 908.548 Q -171.114 908.577 -170.391 908.117 Q -169.668 907.657 -168.571 906.537 Q -167.474 905.418 -166.879 904.894 Q -166.285 904.370 -166.047 904.257 Q -165.809 904.144 -165.736 904.104 Q -165.663 904.065 -165.635 904.050 Q -165.606 904.035 -165.261 903.840 Q -164.916 903.646 -164.860 903.601 Q -164.804 903.556 -164.724 903.494 Q -164.645 903.433 -164.714 903.571 Q -164.783 903.708 -162.973 901.857 Q -161.164 900.006 -160.138 899.027 Q -159.112 898.048 -158.528 897.671 Q -157.945 897.294 -157.674 897.266 Q -157.404 897.238 -157.412 897.230 Q -157.420 897.222 -157.415 897.225 Q -157.410 897.227 -157.277 897.228 Q -157.388 897.429 -157.201 897.260 Q -157.014 897.090 -157.892 898.122 Q -158.769 899.154 -161.212 902.045 Q -163.655 904.935 -166.906 908.113 Q -166.983 907.638 -165.248 906.436 Q -163.514 905.235 -162.110 903.734 Q -160.706 902.233 -160.091 901.465 Q -159.475 900.698 -159.181 900.370 Q -158.886 900.043 -158.670 899.756 Q -158.454 899.469 -158.103 899.295 Q -157.751 899.121 -156.332 896.322 Q -154.912 893.524 -154.000 891.839 Q -153.087 890.154 -152.353 889.156 Q -151.619 888.158 -151.134 887.571 Q -150.649 886.984 -150.346 886.488 Q -150.043 885.993 -149.661 885.326 Q -149.280 884.658 -149.071 884.341 Q -148.863 884.024 -148.807 883.928 Q -148.751 883.832 -148.554 883.548 Q -148.358 883.264 -148.241 883.080 Q -148.124 882.896 -147.981 882.660 Q -147.838 882.424 -147.846 882.419 Q -147.854 882.414 -147.810 882.278 Q -147.766 882.141 -147.750 882.421 Q -147.734 882.701 -147.579 880.593 Q -147.424 878.486 -147.354 877.341 Q -147.283 876.197 -147.213 875.754 Q -147.142 875.310 -147.091 875.201 Q -147.040 875.092 -147.058 875.129 Q -147.075 875.167 -147.068 875.032 Q -147.061 874.898 -147.064 875.051 Q -147.067 875.203 -147.066 874.853 Q -147.065 874.503 -147.065 874.045 Q -147.065 873.587 -147.065 873.631 Q -147.065 873.675 -147.066 873.641 Q -147.067 873.606 -147.127 873.527 Q -147.188 873.447 -147.007 873.546 Q -146.826 873.644 -147.254 872.828 Q -147.682 872.012 -148.212 871.448 Q -148.741 870.884 -148.655 870.949 Q -148.570 871.014 -148.634 870.936 Q -148.698 870.858 -148.634 870.963 Q -148.569 871.067 -148.621 870.976 Q -148.672 870.886 -148.620 870.966 Q -148.568 871.047 -148.752 870.773 Q -148.936 870.499 -149.088 870.275 Q -149.239 870.051 -149.233 870.085 Q -149.226 870.119 -149.210 870.119 Q -149.194 870.118 -149.346 869.985 Q -149.499 869.851 -149.833 869.445 Q -150.166 869.039 -150.181 868.952 Q -150.195 868.865 -150.264 868.706 "></path>
    <path id="STROKE_d2139a69-f383-4554-b604-c2187f123b89" opacity="1.000" fill="none" stroke="#dbf8e3" stroke-width="22.630" stroke-opacity="1.000" stroke-linecap="round" stroke-linejoin="round" d="M -130.741 878.645 Q -130.810 878.301 -130.847 878.312 Q -130.745 878.503 -130.773 878.452 Q -130.801 878.400 -130.814 878.381 Q -130.827 878.362 -130.993 878.103 Q -131.159 877.844 -131.314 877.613 Q -131.468 877.382 -131.693 877.213 Q -131.918 877.044 -131.862 877.077 Q -131.807 877.109 -131.860 877.040 Q -131.913 876.970 -132.193 876.892 Q -132.474 876.814 -132.555 874.545 Q -132.637 872.276 -132.558 870.935 Q -132.479 869.593 -132.456 869.264 Q -132.432 868.934 -132.437 868.637 Q -132.441 868.340 -132.309 866.680 Q -132.175 866.395 -132.310 868.903 Q -132.445 871.410 -132.447 872.919 Q -132.450 874.427 -132.343 875.055 Q -132.237 875.683 -132.019 876.077 Q -131.802 876.471 -131.701 876.638 Q -131.601 876.806 -131.611 876.787 Q -131.622 876.768 -131.460 877.071 Q -131.299 877.375 -131.086 877.831 Q -130.874 878.287 -130.841 878.345 Q -130.809 878.404 -130.565 878.796 Q -130.320 879.189 -130.336 879.160 Q -130.351 879.132 -130.374 879.123 Q -130.397 879.113 -129.992 879.743 Q -129.588 880.373 -128.931 881.212 Q -128.274 882.052 -127.824 882.727 Q -127.373 883.402 -127.160 883.751 Q -126.947 884.100 -127.039 883.940 Q -127.130 883.780 -126.838 884.284 Q -126.546 884.787 -126.017 885.643 Q -125.487 886.498 -125.176 886.859 Q -124.865 887.219 -124.512 887.657 Q -124.160 888.095 -124.132 888.113 Q -124.104 888.132 -124.126 888.105 Q -124.148 888.078 -123.810 888.577 Q -123.473 889.075 -122.693 889.646 Q -121.914 890.216 -121.343 890.529 Q -120.772 890.842 -120.156 891.257 Q -119.540 891.671 -119.245 891.887 Q -118.950 892.102 -119.069 892.032 Q -119.187 891.961 -118.824 892.213 Q -118.462 892.465 -117.167 893.127 Q -115.872 893.789 -114.126 894.739 "></path>
  </g>
</svg>