<?xml version="1.0" encoding="UTF-8" standalone="yes"?>
<svg xmlns="http://www.w3.org/2000/svg" xmlns:xlink="http://www.w3.org/1999/xlink" width="442.666px" height="436.560px" version="1.1" viewBox="-112.984 663.669 221.333 218.280">
  <!--
	Exported with Concepts: Smarter Sketching
	Version: 1057 on iOS 14.8
	https://concepts.app/
	-->
  <title>Untitled 70</title>
  <desc>Drawing exported from Concepts: Smarter Sketching</desc>
  <defs></defs>
  <g id="Custom" opacity="1.000">
    <path id="STROKE_afb05b84-3c01-49af-9dbe-d4e1f4b9c95f" opacity="1.000" fill="none" stroke="#aec5b4" stroke-width="100.000" stroke-opacity="1.000" stroke-linecap="round" stroke-linejoin="round" d="M 38.899 772.520 Q 38.905 772.976 38.899 773.433 Q 38.894 773.889 38.878 774.346 Q 38.862 774.802 38.835 775.258 Q 38.808 775.714 38.771 776.170 Q 38.734 776.625 38.686 777.079 Q 38.637 777.534 38.579 777.987 Q 38.520 778.440 38.451 778.892 Q 38.382 779.344 38.302 779.794 Q 38.222 780.244 38.131 780.692 Q 38.041 781.141 37.940 781.587 Q 37.839 782.033 37.728 782.477 Q 37.617 782.921 37.495 783.362 Q 37.374 783.804 37.242 784.242 Q 37.110 784.681 36.968 785.116 Q 36.825 785.552 36.673 785.984 Q 36.521 786.417 36.358 786.846 Q 36.196 787.275 36.023 787.700 Q 35.851 788.126 35.669 788.547 Q 35.486 788.969 35.294 789.386 Q 35.102 789.803 34.900 790.216 Q 34.698 790.629 34.487 791.038 Q 34.275 791.447 34.054 791.850 Q 33.833 792.254 33.602 792.653 Q 33.372 793.052 33.132 793.446 Q 32.893 793.840 32.644 794.228 Q 32.395 794.617 32.137 795.000 Q 31.879 795.383 31.612 795.760 Q 31.345 796.137 31.070 796.508 Q 30.794 796.880 30.510 797.245 Q 30.226 797.610 29.933 797.969 Q 29.640 798.328 29.339 798.680 Q 29.038 799.033 28.729 799.378 Q 28.420 799.724 28.103 800.063 Q 27.785 800.402 27.460 800.734 Q 27.135 801.066 26.802 801.391 Q 26.470 801.716 26.129 802.033 Q 25.789 802.350 25.441 802.660 Q 25.094 802.970 24.739 803.272 Q 24.384 803.575 24.022 803.869 Q 23.661 804.164 23.292 804.450 Q 22.923 804.737 22.548 805.015 Q 22.173 805.293 21.791 805.563 Q 21.410 805.834 21.022 806.095 Q 20.634 806.357 20.240 806.610 Q 19.846 806.864 19.446 807.108 Q 19.047 807.353 18.641 807.588 Q 18.236 807.824 17.825 808.051 Q 17.414 808.278 16.998 808.496 Q 16.582 808.714 16.161 808.922 Q 15.740 809.131 15.315 809.331 Q 14.889 809.530 14.459 809.720 Q 14.028 809.910 13.594 810.091 Q 13.159 810.272 12.720 810.443 Q 12.281 810.614 11.839 810.776 Q 11.396 810.937 10.950 811.089 Q 10.503 811.241 10.053 811.383 Q 9.604 811.525 9.151 811.658 Q 8.698 811.790 8.242 811.912 Q 7.786 812.035 7.327 812.147 Q 6.868 812.259 6.407 812.362 Q 5.946 812.464 5.482 812.556 Q 5.019 812.649 4.553 812.731 Q 4.087 812.813 3.620 812.885 Q 3.153 812.957 2.684 813.018 Q 2.215 813.080 1.745 813.132 Q 1.274 813.183 0.803 813.224 Q 0.332 813.266 -0.141 813.297 Q -0.613 813.328 -1.086 813.348 Q -1.559 813.369 -2.032 813.379 Q -2.505 813.390 -2.978 813.390 Q -3.451 813.390 -3.925 813.379 Q -4.398 813.369 -4.871 813.348 Q -5.343 813.328 -5.816 813.297 Q -6.288 813.266 -6.759 813.224 Q -7.231 813.183 -7.701 813.132 Q -8.171 813.080 -8.640 813.019 Q -9.109 812.957 -9.576 812.885 Q -10.044 812.813 -10.509 812.731 Q -10.975 812.649 -11.438 812.556 Q -11.902 812.464 -12.363 812.362 Q -12.825 812.259 -13.283 812.147 Q -13.742 812.035 -14.198 811.912 Q -14.654 811.790 -15.107 811.658 Q -15.560 811.525 -16.010 811.383 Q -16.460 811.241 -16.906 811.089 Q -17.352 810.937 -17.795 810.776 Q -18.238 810.614 -18.676 810.443 Q -19.115 810.272 -19.550 810.091 Q -19.985 809.910 -20.415 809.720 Q -20.845 809.530 -21.271 809.331 Q -21.697 809.131 -22.118 808.922 Q -22.539 808.714 -22.955 808.496 Q -23.371 808.278 -23.781 808.051 Q -24.192 807.824 -24.598 807.588 Q -25.003 807.353 -25.403 807.108 Q -25.802 806.864 -26.196 806.610 Q -26.590 806.357 -26.978 806.095 Q -27.366 805.834 -27.748 805.564 Q -28.129 805.293 -28.504 805.015 Q -28.880 804.737 -29.248 804.450 Q -29.617 804.164 -29.979 803.869 Q -30.340 803.575 -30.695 803.273 Q -31.050 802.970 -31.398 802.660 Q -31.745 802.350 -32.086 802.033 Q -32.426 801.716 -32.759 801.391 Q -33.091 801.066 -33.417 800.734 Q -33.742 800.402 -34.059 800.063 Q -34.376 799.724 -34.685 799.378 Q -34.995 799.033 -35.296 798.680 Q -35.597 798.328 -35.889 797.969 Q -36.182 797.610 -36.466 797.245 Q -36.750 796.880 -37.026 796.508 Q -37.302 796.137 -37.568 795.760 Q -37.835 795.383 -38.093 795.000 Q -38.351 794.617 -38.600 794.228 Q -38.849 793.840 -39.089 793.446 Q -39.328 793.052 -39.559 792.653 Q -39.789 792.254 -40.010 791.850 Q -40.231 791.447 -40.443 791.038 Q -40.654 790.629 -40.856 790.216 Q -41.058 789.803 -41.250 789.386 Q -41.443 788.969 -41.625 788.547 Q -41.807 788.126 -41.980 787.700 Q -42.152 787.275 -42.315 786.846 Q -42.477 786.417 -42.629 785.985 Q -42.782 785.552 -42.924 785.117 Q -43.066 784.681 -43.198 784.242 Q -43.330 783.804 -43.452 783.362 Q -43.573 782.921 -43.685 782.477 Q -43.796 782.033 -43.897 781.587 Q -43.997 781.141 -44.088 780.692 Q -44.178 780.244 -44.258 779.794 Q -44.338 779.344 -44.407 778.892 Q -44.476 778.440 -44.535 777.987 Q -44.594 777.534 -44.642 777.079 Q -44.690 776.625 -44.727 776.170 Q -44.765 775.714 -44.791 775.258 Q -44.818 774.802 -44.834 774.346 Q -44.850 773.890 -44.856 773.433 Q -44.861 772.976 -44.856 772.519 Q -44.850 772.063 -44.834 771.606 Q -44.818 771.150 -44.792 770.694 Q -44.765 770.238 -44.727 769.782 Q -44.690 769.327 -44.642 768.873 Q -44.594 768.418 -44.535 767.965 Q -44.477 767.512 -44.407 767.060 Q -44.338 766.608 -44.258 766.158 Q -44.178 765.708 -44.088 765.260 Q -43.998 764.812 -43.897 764.365 Q -43.796 763.919 -43.685 763.475 Q -43.573 763.031 -43.452 762.590 Q -43.330 762.148 -43.198 761.710 Q -43.066 761.271 -42.924 760.836 Q -42.782 760.400 -42.629 759.968 Q -42.477 759.535 -42.315 759.106 Q -42.152 758.677 -41.980 758.252 Q -41.807 757.827 -41.625 757.405 Q -41.443 756.984 -41.250 756.566 Q -41.058 756.149 -40.856 755.736 Q -40.654 755.323 -40.443 754.914 Q -40.231 754.506 -40.010 754.102 Q -39.789 753.698 -39.559 753.299 Q -39.328 752.900 -39.089 752.506 Q -38.849 752.112 -38.600 751.724 Q -38.351 751.335 -38.093 750.953 Q -37.835 750.570 -37.569 750.192 Q -37.302 749.815 -37.026 749.444 Q -36.751 749.073 -36.466 748.707 Q -36.182 748.342 -35.889 747.983 Q -35.597 747.624 -35.296 747.272 Q -34.995 746.919 -34.685 746.574 Q -34.376 746.228 -34.059 745.889 Q -33.742 745.550 -33.417 745.218 Q -33.092 744.886 -32.759 744.561 Q -32.426 744.237 -32.086 743.919 Q -31.745 743.602 -31.398 743.292 Q -31.050 742.982 -30.695 742.680 Q -30.341 742.377 -29.979 742.083 Q -29.617 741.788 -29.248 741.502 Q -28.880 741.215 -28.505 740.937 Q -28.129 740.659 -27.748 740.389 Q -27.366 740.118 -26.978 739.857 Q -26.590 739.595 -26.196 739.342 Q -25.802 739.089 -25.403 738.844 Q -25.003 738.599 -24.598 738.364 Q -24.192 738.128 -23.781 737.901 Q -23.371 737.674 -22.955 737.456 Q -22.539 737.238 -22.118 737.030 Q -21.697 736.821 -21.271 736.621 Q -20.845 736.422 -20.415 736.232 Q -19.985 736.042 -19.550 735.861 Q -19.115 735.680 -18.676 735.509 Q -18.238 735.338 -17.795 735.176 Q -17.352 735.015 -16.906 734.863 Q -16.460 734.711 -16.010 734.569 Q -15.560 734.427 -15.107 734.294 Q -14.654 734.162 -14.198 734.040 Q -13.742 733.917 -13.283 733.805 Q -12.824 733.693 -12.363 733.590 Q -11.902 733.488 -11.438 733.396 Q -10.975 733.303 -10.509 733.221 Q -10.044 733.139 -9.576 733.067 Q -9.109 732.995 -8.640 732.934 Q -8.171 732.872 -7.701 732.820 Q -7.230 732.769 -6.759 732.728 Q -6.288 732.686 -5.815 732.655 Q -5.343 732.624 -4.870 732.604 Q -4.398 732.583 -3.924 732.573 Q -3.451 732.562 -2.978 732.562 Q -2.505 732.562 -2.031 732.573 Q -1.558 732.583 -1.085 732.604 Q -0.613 732.624 -0.140 732.655 Q 0.332 732.686 0.803 732.728 Q 1.275 732.769 1.745 732.820 Q 2.215 732.872 2.684 732.934 Q 3.153 732.995 3.620 733.067 Q 4.088 733.139 4.553 733.221 Q 5.019 733.304 5.482 733.396 Q 5.946 733.488 6.407 733.590 Q 6.868 733.693 7.327 733.805 Q 7.786 733.918 8.242 734.040 Q 8.698 734.162 9.151 734.295 Q 9.604 734.427 10.054 734.569 Q 10.504 734.711 10.950 734.863 Q 11.396 735.015 11.839 735.176 Q 12.282 735.338 12.721 735.509 Q 13.159 735.680 13.594 735.861 Q 14.029 736.042 14.459 736.232 Q 14.889 736.422 15.315 736.622 Q 15.741 736.821 16.162 737.030 Q 16.583 737.239 16.999 737.457 Q 17.415 737.674 17.826 737.901 Q 18.236 738.128 18.642 738.364 Q 19.047 738.600 19.447 738.844 Q 19.846 739.089 20.240 739.342 Q 20.634 739.595 21.022 739.857 Q 21.410 740.119 21.792 740.389 Q 22.173 740.659 22.548 740.937 Q 22.924 741.216 23.292 741.502 Q 23.661 741.789 24.023 742.083 Q 24.385 742.378 24.739 742.680 Q 25.094 742.982 25.442 743.292 Q 25.789 743.602 26.130 743.919 Q 26.470 744.237 26.803 744.562 Q 27.136 744.886 27.461 745.218 Q 27.786 745.550 28.103 745.889 Q 28.420 746.228 28.729 746.574 Q 29.039 746.920 29.340 747.272 Q 29.641 747.625 29.933 747.984 Q 30.226 748.343 30.510 748.708 Q 30.794 749.073 31.070 749.444 Q 31.346 749.816 31.612 750.193 Q 31.879 750.570 32.137 750.953 Q 32.395 751.336 32.644 751.724 Q 32.893 752.113 33.133 752.507 Q 33.372 752.901 33.603 753.299 Q 33.833 753.698 34.054 754.102 Q 34.275 754.506 34.487 754.915 Q 34.698 755.323 34.900 755.736 Q 35.102 756.149 35.294 756.567 Q 35.486 756.984 35.669 757.406 Q 35.851 757.827 36.024 758.252 Q 36.196 758.678 36.358 759.107 Q 36.521 759.536 36.673 759.968 Q 36.826 760.401 36.968 760.836 Q 37.110 761.272 37.242 761.710 Q 37.374 762.149 37.495 762.590 Q 37.617 763.032 37.728 763.476 Q 37.840 763.920 37.940 764.366 Q 38.041 764.812 38.132 765.261 Q 38.222 765.709 38.302 766.159 Q 38.382 766.609 38.451 767.061 Q 38.520 767.513 38.579 767.966 Q 38.638 768.419 38.686 768.874 Q 38.734 769.328 38.771 769.783 Q 38.808 770.239 38.835 770.695 Q 38.862 771.151 38.878 771.607 Q 38.894 772.063 38.899 772.520 Z"></path>
  </g>
</svg>